<?xml version="1.0" encoding="UTF-8"?>
<svg version="1.1" xmlns="http://www.w3.org/2000/svg" width="503" height="496">
<path d="M0 0 C0 0.66 0 1.32 0 2 C-0.99 2.33 -1.98 2.66 -3 3 C-0.03312999 4.64826111 2.65626525 5.44271087 6 6 C6 5.34 6 4.68 6 4 C7.65 4 9.3 4 11 4 C11 3.34 11 2.68 11 2 C12.81332154 2.30769707 14.62564345 2.62129064 16.4375 2.9375 C17.95150391 3.19853516 17.95150391 3.19853516 19.49609375 3.46484375 C22 4 22 4 23 5 C24.9590982 5.05718449 26.91844565 5.10987664 28.87817383 5.13818359 C37.10745193 5.30489848 42.89495593 6.27499498 50.11328125 10.5234375 C53.40152066 12.20537863 56.37606223 12.83232667 60 13.5 C65.72351116 14.6338391 65.72351116 14.6338391 68.3125 18.0625 C69.1478125 19.5165625 69.1478125 19.5165625 70 21 C72.68208416 22.11797246 75.10660659 22.51776777 78 23 C78 23.66 78 24.32 78 25 C75.03 25.66 72.06 26.32 69 27 C68.67 28.65 68.34 30.3 68 32 C66.02 31.01 66.02 31.01 64 30 C64 29.34 64 28.68 64 28 C64.66 28 65.32 28 66 28 C65.05439197 24.81931844 64.36909169 23.27931263 61.6875 21.25 C59.04556451 20.02119279 56.84667269 19.54222337 54 19 C52.3603125 18.2265625 52.3603125 18.2265625 50.6875 17.4375 C46.35357959 15.7480056 43.59937103 15.84408912 39 16 C37 15 37 15 36 12 C31.15220585 11.04945213 28.47701285 10.99712583 24 13 C21.1875 13.125 21.1875 13.125 19 13 C19 12.34 19 11.68 19 11 C15.84724603 11.47769 13.43933134 12.25029851 10.5 13.5625 C7.26560853 14.89091078 5.41907614 15.3108251 2 15 C2 15.66 2 16.32 2 17 C-0.97 17.495 -0.97 17.495 -4 18 C-3 15 -3 15 -0.71484375 13.83203125 C0.20167969 13.49558594 1.11820313 13.15914062 2.0625 12.8125 C3.44115234 12.29623047 3.44115234 12.29623047 4.84765625 11.76953125 C5.91306641 11.38861328 5.91306641 11.38861328 7 11 C5.11401939 11 3.26867638 11.58734053 1.4375 12 C0.61121094 12.185625 -0.21507812 12.37125 -1.06640625 12.5625 C-1.70449219 12.706875 -2.34257812 12.85125 -3 13 C-3 12.34 -3 11.68 -3 11 C-4.32 11 -5.64 11 -7 11 C-7.66 12.32 -8.32 13.64 -9 15 C-11.64 14.67 -14.28 14.34 -17 14 C-16.835 13.401875 -16.67 12.80375 -16.5 12.1875 C-15.8885876 9.88655664 -15.8885876 9.88655664 -16 7 C-15.34 6.67 -14.68 6.34 -14 6 C-15.32 6 -16.64 6 -18 6 C-18.33 6.33 -18.66 6.66 -19 7 C-21.12219794 7.25380753 -23.24810697 7.47662468 -25.375 7.6875 C-31.8085479 8.40950452 -37.63374209 10.03517214 -43.75 12.125 C-50.63385951 14.46649101 -56.65413395 15.89140846 -64 15 C-64.33 14.34 -64.66 13.68 -65 13 C-67.83749912 14.07629277 -68.8550586 14.74305842 -70.375 17.4375 C-72.4909255 20.77415175 -74.29857638 21.69361519 -78 23 C-80.00720923 22.71325582 -82.0085944 22.38133299 -84 22 C-87.62657254 22.74391232 -89.47645652 24.39129392 -91.9375 27 C-95.34839339 30.58407341 -99.10295894 33.40120654 -103.125 36.25 C-103.72304443 36.67410156 -104.32108887 37.09820312 -104.93725586 37.53515625 C-114.17402964 44 -114.17402964 44 -118 44 C-118 43.34 -118 42.68 -118 42 C-121.48775889 44.11756789 -122.85251493 46.49581187 -124.734375 50.04296875 C-126.23937336 52.37014214 -127.99585053 54.08863523 -130 56 C-133.56563291 59.40597771 -135.80069917 62.60139833 -138 67 C-139.485 66.505 -139.485 66.505 -141 66 C-141 64.35 -141 62.7 -141 61 C-142.485 61.495 -142.485 61.495 -144 62 C-144.33 61.34 -144.66 60.68 -145 60 C-144.88140625 60.64066406 -144.7628125 61.28132813 -144.640625 61.94140625 C-143.86705303 67.13207415 -143.49075445 71.07480175 -146.5 75.546875 C-148.89036167 77.86253787 -151.66105276 78.85358204 -154.73828125 80.0234375 C-158.07551695 81.46438556 -160.34241062 83.54684057 -163 86 C-162.505 86.391875 -162.01 86.78375 -161.5 87.1875 C-159.54406857 89.55091715 -159.75792027 91.01435003 -160 94 C-161.98 94.99 -161.98 94.99 -164 96 C-164 95.01 -164 94.02 -164 93 C-164.66 93 -165.32 93 -166 93 C-165.7215625 94.8871875 -165.7215625 94.8871875 -165.4375 96.8125 C-164.99267239 99.82744268 -165.00156154 101.00468461 -166 104 C-167.32 103.34 -168.64 102.68 -170 102 C-172.0624994 103.81222534 -172.0624994 103.81222534 -174 106 C-174 106.99 -174 107.98 -174 109 C-174.66 109 -175.32 109 -176 109 C-175.78730469 109.57234375 -175.57460937 110.1446875 -175.35546875 110.734375 C-174.88801646 113.71374125 -175.67769333 114.76325183 -177.3125 117.25 C-177.76238281 117.95640625 -178.21226562 118.6628125 -178.67578125 119.390625 C-179.33126953 120.18726563 -179.33126953 120.18726563 -180 121 C-180.66 121 -181.32 121 -182 121 C-182.13921875 122.22203125 -182.13921875 122.22203125 -182.28125 123.46875 C-183.31214381 128.53357612 -185.40800721 133.00464298 -187.47265625 137.72265625 C-189.22677985 141.82539722 -190.48965023 145.52026313 -191 150 C-190.195625 150.556875 -189.39125 151.11375 -188.5625 151.6875 C-186 154 -186 154 -185.125 156.5 C-185.00330705 158.93385908 -185.23318032 160.69954095 -186 163 C-186.66 163 -187.32 163 -188 163 C-188 163.66 -188 164.32 -188 165 C-188.99 165.33 -189.98 165.66 -191 166 C-192.485 165.01 -192.485 165.01 -194 164 C-195.485 165.98 -195.485 165.98 -197 168 C-197.33 165.69 -197.66 163.38 -198 161 C-198 172.22 -198 183.44 -198 195 C-197.34 195 -196.68 195 -196 195 C-196.04125 196.051875 -196.0825 197.10375 -196.125 198.1875 C-196.14668319 204.20458589 -195.00976292 210.0856743 -194 216 C-193.38382813 216.08507812 -192.76765625 216.17015625 -192.1328125 216.2578125 C-190 217 -190 217 -188.8046875 218.7421875 C-188.34449219 219.79792969 -188.34449219 219.79792969 -187.875 220.875 C-186.70968082 223.48492974 -185.60447772 225.59328342 -184 228 C-183.59802999 230.32249342 -183.27313343 232.65885633 -183 235 C-182.814375 236.299375 -182.62875 237.59875 -182.4375 238.9375 C-182.2209375 240.4534375 -182.2209375 240.4534375 -182 242 C-183.32 241.67 -184.64 241.34 -186 241 C-187.55829701 244.03002196 -188.16384649 245.39922952 -187.25 248.75 C-186.20270705 251.13393144 -186.20270705 251.13393144 -184 252 C-183.4375 254.3125 -183.4375 254.3125 -183 257 C-182.67516582 258.33542939 -182.3449145 259.66961551 -182 261 C-182.66 261 -183.32 261 -184 261 C-184.99 262.98 -184.99 262.98 -186 265 C-184.7511573 266.5833253 -184.7511573 266.5833253 -183 268 C-181.68 268 -180.36 268 -179 268 C-178.67 266.02 -178.34 264.04 -178 262 C-177.34 262 -176.68 262 -176 262 C-175.505 265.465 -175.505 265.465 -175 269 C-174.360625 269.12375 -173.72125 269.2475 -173.0625 269.375 C-172.0415625 269.684375 -172.0415625 269.684375 -171 270 C-169.64560332 272.70879335 -169.93498549 275.00933268 -170 278 C-170.99 277.67 -171.98 277.34 -173 277 C-173.66 279.31 -174.32 281.62 -175 284 C-174.34 284.66 -173.68 285.32 -173 286 C-172.01 286 -171.02 286 -170 286 C-167 287 -167 287 -165.796875 289.109375 C-165.27867187 290.41648437 -165.27867187 290.41648437 -164.75 291.75 C-164.21632813 293.04164063 -164.21632813 293.04164063 -163.671875 294.359375 C-162.92222067 297.30569086 -163.18673598 299.10144361 -164 302 C-165.98 302 -167.96 302 -170 302 C-168.23000902 303.93827536 -166.45904239 305.87564344 -164.6875 307.8125 C-164.18798828 308.35970703 -163.68847656 308.90691406 -163.17382812 309.47070312 C-160.83056872 312.03121837 -158.48855146 314.57939534 -156 317 C-156.49371094 316.31292969 -156.98742187 315.62585938 -157.49609375 314.91796875 C-158.13675781 314.01691406 -158.77742188 313.11585938 -159.4375 312.1875 C-160.39462891 310.84751953 -160.39462891 310.84751953 -161.37109375 309.48046875 C-163 307 -163 307 -164 304 C-163.34 303.54625 -162.68 303.0925 -162 302.625 C-161.01 301.820625 -161.01 301.820625 -160 301 C-160 300.34 -160 299.68 -160 299 C-155.63091207 299.41755852 -153.51681817 302.31224537 -150.8125 305.4375 C-150.36197266 305.94087891 -149.91144531 306.44425781 -149.44726562 306.96289062 C-147.72941339 308.90223505 -146.16375559 310.67248883 -145 313 C-141.97065509 313.65772428 -141.97065509 313.65772428 -139 314 C-139.33 315.32 -139.66 316.64 -140 318 C-139.10667969 318.38865234 -139.10667969 318.38865234 -138.1953125 318.78515625 C-135.83928576 320.08893617 -134.57518257 321.36790604 -132.875 323.4375 C-132.37742187 324.03433594 -131.87984375 324.63117188 -131.3671875 325.24609375 C-128 329.56571429 -128 329.56571429 -128 333 C-125.36 333 -122.72 333 -120 333 C-119.67 334.65 -119.34 336.3 -119 338 C-120.65 337.67 -122.3 337.34 -124 337 C-114.90482937 350.53645884 -114.90482937 350.53645884 -101 358 C-101.66 359.65 -102.32 361.3 -103 363 C-101.02 363.33 -99.04 363.66 -97 364 C-96.505 365.485 -96.505 365.485 -96 367 C-96.99 367.33 -97.98 367.66 -99 368 C-99.33 368.99 -99.66 369.98 -100 371 C-100.66 371.33 -101.32 371.66 -102 372 C-97.27536912 371.53680089 -93.82942948 370.90108294 -90 368 C-90 367.34 -90 366.68 -90 366 C-88.948125 366.185625 -87.89625 366.37125 -86.8125 366.5625 C-83.42880118 366.95079331 -81.23574112 366.88247485 -78 366 C-78 365.01 -78 364.02 -78 363 C-78.81984375 362.80664062 -79.6396875 362.61328125 -80.484375 362.4140625 C-81.56203125 362.15367187 -82.6396875 361.89328125 -83.75 361.625 C-84.81734375 361.36976563 -85.8846875 361.11453125 -86.984375 360.8515625 C-89.55852722 360.12466459 -91.67600186 359.2973776 -94 358 C-94 356.35 -94 354.7 -94 353 C-89.69540852 353.34902093 -86.35568752 354.6747291 -82.5 356.5 C-75.92418569 359.68041652 -75.92418569 359.68041652 -68.8125 359.4375 C-68.214375 359.293125 -67.61625 359.14875 -67 359 C-66.01 359.66 -65.02 360.32 -64 361 C-63.8125 363.625 -63.8125 363.625 -64 366 C-68.75 367 -68.75 367 -71 367 C-71.33 367.66 -71.66 368.32 -72 369 C-71.01 369.66 -70.02 370.32 -69 371 C-69.66 373.97 -70.32 376.94 -71 380 C-70.29077393 379.8438623 -69.58154785 379.68772461 -68.85083008 379.52685547 C-66.00839232 379.00155097 -63.27059891 378.74869684 -60.38671875 378.5703125 C-58.77192627 378.46275635 -58.77192627 378.46275635 -57.12451172 378.35302734 C-55.42319092 378.24015381 -55.42319092 378.24015381 -53.6875 378.125 C-43.59616452 377.41272002 -33.86898143 376.23617404 -24 374 C-23.67 374.99 -23.34 375.98 -23 377 C-22.67 376.34 -22.34 375.68 -22 375 C-21.01 374.67 -20.02 374.34 -19 374 C-18.67 373.34 -18.34 372.68 -18 372 C-15.67843403 371.59270772 -13.3431213 371.25561323 -11 371 C-11 371.66 -11 372.32 -11 373 C-10.34 373 -9.68 373 -9 373 C-9.33 374.32 -9.66 375.64 -10 377 C-10.66 377 -11.32 377 -12 377 C-12.33 377.99 -12.66 378.98 -13 380 C-13.66 380.33 -14.32 380.66 -15 381 C-13.38746547 382.61253453 -11.66400957 382.24791423 -9.4375 382.3125 C-4.848038 382.27344075 -2.01331015 381.33737836 1.921875 379.08984375 C6.95685799 376.44931696 12.34102336 375 18 375 C17.67 376.32 17.34 377.64 17 379 C19.10192697 379.24887295 21.20673964 379.4734719 23.3125 379.6875 C24.48425781 379.81511719 25.65601563 379.94273437 26.86328125 380.07421875 C29.98209507 380.33097235 29.98209507 380.33097235 31.73046875 378.51953125 C32.14941406 378.01808594 32.56835938 377.51664062 33 377 C33.99 377 34.98 377 36 377 C36.33 378.32 36.66 379.64 37 381 C42.39303284 378.56392428 42.39303284 378.56392428 45.4375 373.75 C45.623125 372.8425 45.80875 371.935 46 371 C47.32 371 48.64 371 50 371 C49.835 371.61875 49.67 372.2375 49.5 372.875 C48.92365356 374.96063386 48.92365356 374.96063386 49 377 C50.32 376.34 51.64 375.68 53 375 C52.93039062 374.40832031 52.86078125 373.81664062 52.7890625 373.20703125 C52.47658011 368.64627638 52.42297523 366.69538882 55.4375 363.0625 C59.97417116 359.93413197 65.28781432 359.3874551 70.625 358.625 C73.00678701 357.99821395 74.58809687 357.1337797 76.6875 355.875 C77.780625 355.25625 78.87375 354.6375 80 354 C80.66 354.33 81.32 354.66 82 355 C80.68 356.65 79.36 358.3 78 360 C84.6365901 356.87500369 90.52619756 353.89761271 96 349 C96.66 349 97.32 349 98 349 C97.47731534 351.76276177 96.89130413 354.3260876 96 357 C96.99 357.33 97.98 357.66 99 358 C99.33 358.99 99.66 359.98 100 361 C100.53109375 360.57847656 101.0621875 360.15695312 101.609375 359.72265625 C102.31578125 359.17480469 103.0221875 358.62695312 103.75 358.0625 C104.79414062 357.24458984 104.79414062 357.24458984 105.859375 356.41015625 C108 355 108 355 110.12890625 354.5703125 C112.17476437 354.16351129 112.17476437 354.16351129 113.23046875 352.14453125 C114.68781934 348.5933545 115.92827596 345.43034422 116.5625 341.625 C117.05710566 338.65736607 117.79227276 337.91976281 120 336 C120 335.34 120 334.68 120 334 C122.5 332.375 122.5 332.375 125 331 C124.34 329.68 123.68 328.36 123 327 C124.32 327 125.64 327 127 327 C126.9071875 326.31035156 126.814375 325.62070312 126.71875 324.91015625 C126.13680502 317.3344796 126.13680502 317.3344796 128.359375 313.8984375 C129.70459372 312.50318999 131.07021127 311.12748674 132.44921875 309.765625 C138.17101757 303.56189826 142.47663398 296.09988323 147 289 C147.65097656 287.9790625 148.30195313 286.958125 148.97265625 285.90625 C153.86965615 277.84877499 157.77591173 269.2885016 161.765625 260.7578125 C162.51041332 259.17187343 163.25520466 257.58593577 164 256 C164.55171875 254.82179688 165.1034375 253.64359375 165.671875 252.4296875 C167 250 167 250 169 249 C169.53778414 247.04092921 169.97971208 245.05521614 170.375 243.0625 C171.64993867 237.22225066 172.96780035 231.21716705 176 226 C176.99 225.67 177.98 225.34 179 225 C179 226.32 179 227.64 179 229 C179.66 229 180.32 229 181 229 C180.83242188 228.27554688 180.66484375 227.55109375 180.4921875 226.8046875 C179.29418026 221.11794426 178.70258382 217.48827198 181 212 C181.16798469 208.74955291 181.16798469 208.74955291 181 206 C183.42666795 204.78666603 185.33499722 205 188 205 C188.66 202.69 189.32 200.38 190 198 C191.32 197.67 192.64 197.34 194 197 C194.97477898 200.72188336 195.12816587 202.64248468 193.8125 206.3125 C192 209 192 209 189.88671875 209.66796875 C189.26410156 209.77753906 188.64148438 209.88710937 188 210 C188.515625 211.11375 189.03125 212.2275 189.5625 213.375 C197.63509827 238.21079277 181.48625265 272.01179363 170.70703125 293.875 C167.3272634 300.46723282 163.31724072 306.60984474 159.15234375 312.7265625 C156.91692075 315.82094489 156.91692075 315.82094489 156 319 C155.02149805 320.02104551 154.02019573 321.0206121 153 322 C152.34 322.99 151.68 323.98 151 325 C150.34 325 149.68 325 149 325 C148.938125 325.556875 148.87625 326.11375 148.8125 326.6875 C147.89635747 329.29498258 146.56275027 330.53747193 144.60766602 332.43188477 C142.72530862 334.2679336 140.89757484 336.15196382 139.06640625 338.0390625 C130.20120601 347.09964449 121.35174512 355.66277406 111 363 C109.96407715 363.73790771 109.96407715 363.73790771 108.90722656 364.49072266 C103.70597614 368.15915425 98.41232961 371.65096799 93 375 C92.39091797 375.37753418 91.78183594 375.75506836 91.15429688 376.14404297 C63.40308658 392.79633347 15.1617104 405.58172346 -17 404 C-16.67 403.01 -16.34 402.02 -16 401 C-16.83144531 401.01160156 -17.66289062 401.02320313 -18.51953125 401.03515625 C-20.14955078 401.04869141 -20.14955078 401.04869141 -21.8125 401.0625 C-22.89144531 401.07410156 -23.97039062 401.08570313 -25.08203125 401.09765625 C-28 401 -28 401 -31 400 C-31 399.34 -31 398.68 -31 398 C-31.66 398 -32.32 398 -33 398 C-33 397.34 -33 396.68 -33 396 C-32.11957031 395.87882812 -31.23914063 395.75765625 -30.33203125 395.6328125 C-29.17058594 395.46523438 -28.00914062 395.29765625 -26.8125 395.125 C-25.66394531 394.96257812 -24.51539063 394.80015625 -23.33203125 394.6328125 C-20.31275375 394.05939755 -17.79424152 393.25240957 -15 392 C-15 390.68 -15 389.36 -15 388 C-18.3 387.34 -21.6 386.68 -25 386 C-25.33 387.32 -25.66 388.64 -26 390 C-28.06640625 391.046875 -28.06640625 391.046875 -30.5625 391.75 C-31.38878906 391.99234375 -32.21507812 392.2346875 -33.06640625 392.484375 C-34.02353516 392.73960937 -34.02353516 392.73960937 -35 393 C-35 393.66 -35 394.32 -35 395 C-35.65226563 395.04898437 -36.30453125 395.09796875 -36.9765625 395.1484375 C-41.97694529 395.57619886 -46.24310819 396.34061913 -51 398 C-53.875 398.125 -53.875 398.125 -56 398 C-56 397.34 -56 396.68 -56 396 C-57.04800781 395.87882812 -58.09601563 395.75765625 -59.17578125 395.6328125 C-60.55473886 395.46396055 -61.93364239 395.29466659 -63.3125 395.125 C-64.00279297 395.04636719 -64.69308594 394.96773438 -65.40429688 394.88671875 C-68.95639471 394.44056153 -70.9697029 394.02019807 -74 392 C-74 391.34 -74 390.68 -74 390 C-74.73605469 389.86722656 -75.47210938 389.73445313 -76.23046875 389.59765625 C-77.20628906 389.42105469 -78.18210938 389.24445313 -79.1875 389.0625 C-80.63189453 388.80146484 -80.63189453 388.80146484 -82.10546875 388.53515625 C-83.06066406 388.35855469 -84.01585937 388.18195313 -85 388 C-86.33611328 387.79310547 -86.33611328 387.79310547 -87.69921875 387.58203125 C-91.115486 386.71781424 -92.67676626 384.56778466 -95 382 C-95.8971875 381.1646875 -95.8971875 381.1646875 -96.8125 380.3125 C-98 379 -98 379 -98 377 C-99.258125 376.979375 -100.51625 376.95875 -101.8125 376.9375 C-108.11042494 376.27561617 -113.14866805 372.92640511 -118 369 C-118 368.34 -118 367.68 -118 367 C-119.04220703 366.63261719 -119.04220703 366.63261719 -120.10546875 366.2578125 C-129.26921122 362.27572738 -137.3617133 355.36027559 -144 348 C-143 345 -143 345 -142 344 C-142.56847656 343.8040625 -143.13695312 343.608125 -143.72265625 343.40625 C-149.42532615 341.19753645 -152.73149651 338.61909868 -156.4921875 333.8046875 C-158.05917247 331.75626057 -158.05917247 331.75626057 -161 330 C-161 329.34 -161 328.68 -161 328 C-161.99 327.67 -162.98 327.34 -164 327 C-164.97306203 325.62429161 -165.93526432 324.23860277 -166.8203125 322.8046875 C-168.14946267 320.7713518 -169.65522459 318.94668555 -171.1875 317.0625 C-173.97225849 313.3983441 -174.65662409 310.63557483 -175 306 C-176.241531 301.32038316 -178.22651132 297.95012025 -181 294 C-184.05633803 289.63380282 -184.05633803 289.63380282 -183.75 286.1875 C-184.03676208 282.53128348 -184.50139325 282.16144982 -186.9375 279.625 C-190.65260208 275.70434924 -193.28534039 271.48321549 -195.9375 266.8125 C-196.3389624 266.1230127 -196.7404248 265.43352539 -197.15405273 264.72314453 C-199.21478128 261.02449286 -200.55045647 258.36130892 -200 254 C-199.34 253.67 -198.68 253.34 -198 253 C-198 252.34 -198 251.68 -198 251 C-198.99 250.67 -199.98 250.34 -201 250 C-201.03867188 249.05640625 -201.03867188 249.05640625 -201.078125 248.09375 C-201.43147077 242.76144114 -202.18284728 238.77051058 -204.96484375 234.1796875 C-208.52616116 226.68076254 -208.37958973 218.76227622 -208.5625 210.625 C-208.76792251 202.70530657 -209.0630876 194.87096399 -210 187 C-209.01 187 -208.02 187 -207 187 C-206.01 190.465 -206.01 190.465 -205 194 C-205 191.36 -205 188.72 -205 186 C-205.66 185.67 -206.32 185.34 -207 185 C-207.34270469 171.57739971 -207.71110394 156.91928579 -200.8125 144.9375 C-199.78587754 142.86524855 -199.78587754 142.86524855 -200.09765625 139.84765625 C-199.99242925 135.70171261 -199.03554856 132.34334859 -197.625 128.5 C-196.29166141 124.74029526 -195.00301737 121.01116201 -193.9609375 117.15625 C-193 114 -193 114 -191 112 C-190.01 112 -189.02 112 -188 112 C-187.81824219 111.31292969 -187.63648438 110.62585938 -187.44921875 109.91796875 C-187.19785156 109.01691406 -186.94648438 108.11585938 -186.6875 107.1875 C-186.44386719 106.29417969 -186.20023438 105.40085937 -185.94921875 104.48046875 C-184.97135245 101.92513913 -184.14907383 100.66290803 -182 99 C-181.34 99 -180.68 99 -180 99 C-179.75507813 98.14921875 -179.51015625 97.2984375 -179.2578125 96.421875 C-177.88798449 92.69526215 -176.04726935 89.54326307 -173.875 86.25 C-173.47539062 85.63801758 -173.07578125 85.02603516 -172.6640625 84.39550781 C-169.08872383 78.99572812 -165.20810727 73.92438085 -161 69 C-160.30261719 68.16855469 -159.60523438 67.33710937 -158.88671875 66.48046875 C-153.45361202 60.19813753 -147.56190074 55.07780731 -141 50 C-140.34 50.66 -139.68 51.32 -139 52 C-137.768606 49.53721199 -137.92840804 47.7204945 -138 45 C-136.68 45 -135.36 45 -134 45 C-133.92394531 44.41347656 -133.84789062 43.82695313 -133.76953125 43.22265625 C-132.73812425 40.24361775 -131.21264352 39.28486359 -128.6875 37.4375 C-127.90761719 36.85871094 -127.12773437 36.27992187 -126.32421875 35.68359375 C-125.55722656 35.12800781 -124.79023438 34.57242188 -124 34 C-123.36191406 33.48953125 -122.72382813 32.9790625 -122.06640625 32.453125 C-115.45586834 27.80450477 -108.03621825 25.22728671 -100 26 C-99.97421875 25.41863281 -99.9484375 24.83726563 -99.921875 24.23828125 C-98.48246444 20.74344121 -95.50120421 19.73439692 -92.25 18.1875 C-91.54190186 17.84493164 -90.83380371 17.50236328 -90.10424805 17.14941406 C-62.58481474 4.27239621 -30.26788873 -0.66669358 0 0 Z M-144 57 C-143 59 -143 59 -143 59 Z M-194 234 C-192.6910428 237.12197478 -192.6910428 237.12197478 -190 239 C-190.33 237.35 -190.66 235.7 -191 234 C-191.99 234 -192.98 234 -194 234 Z M-190 239 C-189 243 -189 243 -189 243 Z M168 258 C168 259.65 168 261.3 168 263 C168.33 263 168.66 263 169 263 C169 261.35 169 259.7 169 258 C168.67 258 168.34 258 168 258 Z M-157 306 C-156.34 306.66 -155.68 307.32 -155 308 C-155 307.34 -155 306.68 -155 306 C-155.66 306 -156.32 306 -157 306 Z M-151 325 C-149.44533803 329.08332902 -146.74912156 331.08208993 -143.375 333.75 C-141.87066406 334.94882812 -141.87066406 334.94882812 -140.3359375 336.171875 C-139.56507813 336.77515625 -138.79421875 337.3784375 -138 338 C-137.34 337.67 -136.68 337.34 -136 337 C-137.32 335.35 -138.64 333.7 -140 332 C-139.34 331.67 -138.68 331.34 -138 331 C-139.36125 330.3503125 -139.36125 330.3503125 -140.75 329.6875 C-144 328 -144 328 -146.1875 326.3125 C-148.03200202 324.70674509 -148.03200202 324.70674509 -151 325 Z M9.6875 388.25 C8.66720703 388.27707031 7.64691406 388.30414063 6.59570312 388.33203125 C0.68670617 388.56884949 -3.74655507 389.24360858 -9 392 C-9 393.32 -9 394.64 -9 396 C-4.545 395.505 -4.545 395.505 0 395 C0 395.66 0 396.32 0 397 C-0.66 397.66 -1.32 398.32 -2 399 C0.31 399 2.62 399 5 399 C5.74957157 395.52852158 5.74957157 395.52852158 6 392 C7.41543415 391.80341192 8.83244031 391.61812454 10.25 391.4375 C11.03890625 391.33308594 11.8278125 391.22867187 12.640625 391.12109375 C15 391 15 391 17.09375 391.5625 C20.23282337 392.28294307 22.31633666 390.52480872 25 389 C19.93858115 387.48754456 14.90923704 388.03473789 9.6875 388.25 Z " fill="#1B1B1B" transform="translate(257,37)"/>
<path d="M0 0 C0.99 0 1.98 0 3 0 C3.97477898 3.72188336 4.12816587 5.64248468 2.8125 9.3125 C1 12 1 12 -1.11328125 12.66796875 C-1.73589844 12.77753906 -2.35851562 12.88710937 -3 13 C-2.484375 14.11375 -1.96875 15.2275 -1.4375 16.375 C6.63509827 41.21079277 -9.51374735 75.01179363 -20.29296875 96.875 C-23.6727366 103.46723282 -27.68275928 109.60984474 -31.84765625 115.7265625 C-34.08307925 118.82094489 -34.08307925 118.82094489 -35 122 C-35.97850195 123.02104551 -36.97980427 124.0206121 -38 125 C-38.66 125.99 -39.32 126.98 -40 128 C-40.66 128 -41.32 128 -42 128 C-42.061875 128.556875 -42.12375 129.11375 -42.1875 129.6875 C-43.10364253 132.29498258 -44.43724973 133.53747193 -46.39233398 135.43188477 C-48.27469138 137.2679336 -50.10242516 139.15196382 -51.93359375 141.0390625 C-60.79879399 150.09964449 -69.64825488 158.66277406 -80 166 C-81.03592285 166.73790771 -81.03592285 166.73790771 -82.09277344 167.49072266 C-87.29402386 171.15915425 -92.58767039 174.65096799 -98 178 C-98.60908203 178.37753418 -99.21816406 178.75506836 -99.84570312 179.14404297 C-112.53392468 186.75769113 -134.00160774 196 -149 196 C-152.25851406 192.64274309 -153.75037104 189.4778371 -155 185 C-154.44570313 184.70867187 -153.89140625 184.41734375 -153.3203125 184.1171875 C-148.4210148 181.38113153 -148.4210148 181.38113153 -145.5 176.6875 C-145.335 175.800625 -145.17 174.91375 -145 174 C-143.68 174 -142.36 174 -141 174 C-141.165 174.61875 -141.33 175.2375 -141.5 175.875 C-142.07634644 177.96063386 -142.07634644 177.96063386 -142 180 C-140.02 179.01 -140.02 179.01 -138 178 C-138.06960938 177.40832031 -138.13921875 176.81664062 -138.2109375 176.20703125 C-138.52341989 171.64627638 -138.57702477 169.69538882 -135.5625 166.0625 C-131.02582884 162.93413197 -125.71218568 162.3874551 -120.375 161.625 C-117.99321299 160.99821395 -116.41190313 160.1337797 -114.3125 158.875 C-113.219375 158.25625 -112.12625 157.6375 -111 157 C-110.34 157.33 -109.68 157.66 -109 158 C-110.32 159.65 -111.64 161.3 -113 163 C-106.3634099 159.87500369 -100.47380244 156.89761271 -95 152 C-94.34 152 -93.68 152 -93 152 C-93.52268466 154.76276177 -94.10869587 157.3260876 -95 160 C-94.01 160.33 -93.02 160.66 -92 161 C-91.67 161.99 -91.34 162.98 -91 164 C-90.46890625 163.57847656 -89.9378125 163.15695312 -89.390625 162.72265625 C-88.33101562 161.90087891 -88.33101562 161.90087891 -87.25 161.0625 C-86.55390625 160.51722656 -85.8578125 159.97195313 -85.140625 159.41015625 C-83 158 -83 158 -80.87109375 157.5703125 C-78.82523563 157.16351129 -78.82523563 157.16351129 -77.76953125 155.14453125 C-76.31218066 151.5933545 -75.07172404 148.43034422 -74.4375 144.625 C-73.94289434 141.65736607 -73.20772724 140.91976281 -71 139 C-71 138.34 -71 137.68 -71 137 C-68.5 135.375 -68.5 135.375 -66 134 C-66.66 132.68 -67.32 131.36 -68 130 C-66.68 130 -65.36 130 -64 130 C-64.0928125 129.31035156 -64.185625 128.62070312 -64.28125 127.91015625 C-64.86319498 120.3344796 -64.86319498 120.3344796 -62.640625 116.8984375 C-61.29540628 115.50318999 -59.92978873 114.12748674 -58.55078125 112.765625 C-52.82898243 106.56189826 -48.52336602 99.09988323 -44 92 C-43.34902344 90.9790625 -42.69804687 89.958125 -42.02734375 88.90625 C-37.13034385 80.84877499 -33.22408827 72.2885016 -29.234375 63.7578125 C-28.48958668 62.17187343 -27.74479534 60.58593577 -27 59 C-26.44828125 57.82179688 -25.8965625 56.64359375 -25.328125 55.4296875 C-24 53 -24 53 -22 52 C-21.46221586 50.04092921 -21.02028792 48.05521614 -20.625 46.0625 C-19.35006133 40.22225066 -18.03219965 34.21716705 -15 29 C-14.01 28.67 -13.02 28.34 -12 28 C-12 29.32 -12 30.64 -12 32 C-11.34 32 -10.68 32 -10 32 C-10.16757812 31.27554687 -10.33515625 30.55109375 -10.5078125 29.8046875 C-11.70581974 24.11794426 -12.29741618 20.48827198 -10 15 C-9.83201531 11.74955291 -9.83201531 11.74955291 -10 9 C-7.57333205 7.78666603 -5.66500278 8 -3 8 C-2.690625 6.865625 -2.38125 5.73125 -2.0625 4.5625 C-1 1 -1 1 0 0 Z M-23 61 C-23 62.65 -23 64.3 -23 66 C-22.67 66 -22.34 66 -22 66 C-22 64.35 -22 62.7 -22 61 C-22.33 61 -22.66 61 -23 61 Z M-158 187 C-156 188 -156 188 -156 188 Z " fill="#131313" transform="translate(448,234)"/>
<path d="M0 0 C0 0.66 0 1.32 0 2 C1.07378906 1.98839844 2.14757812 1.97679687 3.25390625 1.96484375 C4.69010241 1.95545685 6.12630048 1.94635762 7.5625 1.9375 C8.61920898 1.92493164 8.61920898 1.92493164 9.69726562 1.91210938 C14.24024798 1.89117397 18.51784892 2.25199318 23 3 C24.24911667 10.65083958 24.09053426 18.27440986 24 26 C24.66 26 25.32 26 26 26 C25.98839844 25.16597656 25.97679687 24.33195312 25.96484375 23.47265625 C25.91200207 16.88254338 26.11444932 10.53093626 27 4 C32.89815987 1.4093152 38.68870832 1.74008784 45 1.8125 C46.06734375 1.81314453 47.1346875 1.81378906 48.234375 1.81445312 C58.75162062 1.87331831 58.75162062 1.87331831 63 3 C68.21075494 13.42150987 65.83638962 32.86039124 64 44 C61.53997213 46.46002787 60.15206161 46.24552005 56.79333496 46.27789307 C56.08809692 46.2738446 55.38285889 46.26979614 54.65625 46.265625 C53.56890564 46.26849518 53.56890564 46.26849518 52.45959473 46.27142334 C50.92634738 46.27278487 49.3930885 46.26909064 47.85986328 46.26074219 C45.50917741 46.25004178 43.15925577 46.26063808 40.80859375 46.2734375 C39.32031081 46.2721159 37.83202834 46.26955349 36.34375 46.265625 C35.63851196 46.26967346 34.93327393 46.27372192 34.20666504 46.27789307 C29.22992486 46.22992486 29.22992486 46.22992486 27 44 C26.53340269 41.27530214 26.16400746 38.61820198 25.875 35.875 C25.78863281 35.12089844 25.70226562 34.36679687 25.61328125 33.58984375 C25.40110739 31.72742873 25.19954237 29.86381069 25 28 C20.71 27.67 16.42 27.34 12 27 C12.70125 27.70125 13.4025 28.4025 14.125 29.125 C14.57488281 29.58390625 15.02476562 30.0428125 15.48828125 30.515625 C16.51285129 31.52166276 17.57521474 32.490347 18.66796875 33.421875 C21.9183428 36.29393948 22.92135244 37.3146427 23.4375 41.8125 C23 45 23 45 22 46 C19.7578125 46.484375 19.7578125 46.484375 17 46 C15.03387604 43.76495332 13.47872 41.72178862 11.875 39.25 C11.01833807 37.98430129 10.16156994 36.71867444 9.3046875 35.453125 C8.00202193 33.52059058 6.75384886 31.59129623 5.55078125 29.59375 C3.30272033 27.28340024 1.47381313 27.39876768 -1.6875 27.25 C-3.440625 27.1675 -5.19375 27.085 -7 27 C-7.33 33.27 -7.66 39.54 -8 46 C-9.65 46 -11.3 46 -13 46 C-14.27664635 42.09019131 -14.14404634 38.15827462 -14.1328125 34.09375 C-14.13376923 33.33203491 -14.13472595 32.57031982 -14.13571167 31.78552246 C-14.13639078 30.17846595 -14.13455528 28.57140667 -14.13037109 26.96435547 C-14.12501902 24.50872621 -14.13032518 22.05327984 -14.13671875 19.59765625 C-14.13605792 18.03385376 -14.13477666 16.47005139 -14.1328125 14.90625 C-14.13483673 14.17386108 -14.13686096 13.44147217 -14.13894653 12.68688965 C-14.12349999 9.31786489 -14.05161568 6.22063828 -13 3 C-11.2092015 2.49689942 -9.41733089 1.99761372 -7.625 1.5 C-6.62726563 1.2215625 -5.62953125 0.943125 -4.6015625 0.65625 C-2 0 -2 0 0 0 Z M-5 13 C-5.62931533 15.67595823 -5.78130812 18.24448232 -6 21 C-4.41586641 22.58413359 -2.79022215 22.12979629 -0.59765625 22.1328125 C0.29244141 22.13410156 1.18253906 22.13539063 2.09960938 22.13671875 C3.03611328 22.13285156 3.97261719 22.12898438 4.9375 22.125 C5.87013672 22.12886719 6.80277344 22.13273437 7.76367188 22.13671875 C9.10075195 22.13478516 9.10075195 22.13478516 10.46484375 22.1328125 C11.69642212 22.13112061 11.69642212 22.13112061 12.95288086 22.12939453 C15.06616024 22.1293784 15.06616024 22.1293784 17 21 C17 17.04 17 13.08 17 9 C5.15653768 8.35323935 5.15653768 8.35323935 -5 13 Z M42.5625 9.6875 C41.55316406 9.81511719 40.54382813 9.94273437 39.50390625 10.07421875 C36.82919464 10.76217029 36.82919464 10.76217029 35.72265625 13.18359375 C33.81117747 20.63319482 32.64200211 28.30304545 33 36 C40.09784913 37.81774185 46.65081658 39.43230491 54 39 C56.26818211 28.94296611 57.5762699 19.30102482 58 9 C52.77662482 8.82588749 47.75031099 9.01790317 42.5625 9.6875 Z " fill="#212121" transform="translate(300,289)"/>
<path d="M0 0 C0 0.66 0 1.32 0 2 C-0.99 2.33 -1.98 2.66 -3 3 C-0.03312999 4.64826111 2.65626525 5.44271087 6 6 C6 5.34 6 4.68 6 4 C7.65 4 9.3 4 11 4 C11 3.34 11 2.68 11 2 C12.81332154 2.30769707 14.62564345 2.62129064 16.4375 2.9375 C17.95150391 3.19853516 17.95150391 3.19853516 19.49609375 3.46484375 C22 4 22 4 23 5 C24.9590982 5.05718449 26.91844565 5.10987664 28.87817383 5.13818359 C37.10745193 5.30489848 42.89495593 6.27499498 50.11328125 10.5234375 C53.40152066 12.20537863 56.37606223 12.83232667 60 13.5 C65.72351116 14.6338391 65.72351116 14.6338391 68.3125 18.0625 C68.869375 19.031875 69.42625 20.00125 70 21 C72.68208416 22.11797246 75.10660659 22.51776777 78 23 C78 23.66 78 24.32 78 25 C75.03 25.66 72.06 26.32 69 27 C68.67 28.65 68.34 30.3 68 32 C66.02 31.01 66.02 31.01 64 30 C64 29.34 64 28.68 64 28 C64.66 28 65.32 28 66 28 C65.05439197 24.81931844 64.36909169 23.27931263 61.6875 21.25 C59.04556451 20.02119279 56.84667269 19.54222337 54 19 C52.906875 18.484375 51.81375 17.96875 50.6875 17.4375 C46.35357959 15.7480056 43.59937103 15.84408912 39 16 C37 15 37 15 36 12 C31.15220585 11.04945213 28.47701285 10.99712583 24 13 C21.1875 13.125 21.1875 13.125 19 13 C19 12.34 19 11.68 19 11 C15.84724603 11.47769 13.43933134 12.25029851 10.5 13.5625 C7.26560853 14.89091078 5.41907614 15.3108251 2 15 C2 15.66 2 16.32 2 17 C-0.97 17.495 -0.97 17.495 -4 18 C-3 15 -3 15 -0.71484375 13.83203125 C0.20167969 13.49558594 1.11820313 13.15914062 2.0625 12.8125 C3.44115234 12.29623047 3.44115234 12.29623047 4.84765625 11.76953125 C5.91306641 11.38861328 5.91306641 11.38861328 7 11 C5.11401939 11 3.26867638 11.58734053 1.4375 12 C0.61121094 12.185625 -0.21507812 12.37125 -1.06640625 12.5625 C-1.70449219 12.706875 -2.34257812 12.85125 -3 13 C-3 12.34 -3 11.68 -3 11 C-4.32 11 -5.64 11 -7 11 C-7.66 12.32 -8.32 13.64 -9 15 C-11.64 14.67 -14.28 14.34 -17 14 C-16.835 13.401875 -16.67 12.80375 -16.5 12.1875 C-15.8885876 9.88655664 -15.8885876 9.88655664 -16 7 C-15.34 6.67 -14.68 6.34 -14 6 C-15.32 6 -16.64 6 -18 6 C-18.33 6.33 -18.66 6.66 -19 7 C-21.12219794 7.25380753 -23.24810697 7.47662468 -25.375 7.6875 C-31.8085479 8.40950452 -37.63374209 10.03517214 -43.75 12.125 C-50.63385951 14.46649101 -56.65413395 15.89140846 -64 15 C-64.495 14.01 -64.495 14.01 -65 13 C-67.83749912 14.07629277 -68.8550586 14.74305842 -70.375 17.4375 C-72.4909255 20.77415175 -74.29857638 21.69361519 -78 23 C-80.00720923 22.71325582 -82.0085944 22.38133299 -84 22 C-87.62657254 22.74391232 -89.47645652 24.39129392 -91.9375 27 C-95.34839339 30.58407341 -99.10295894 33.40120654 -103.125 36.25 C-104.02206665 36.88615234 -104.02206665 36.88615234 -104.93725586 37.53515625 C-114.17402964 44 -114.17402964 44 -118 44 C-118 43.34 -118 42.68 -118 42 C-121.48775889 44.11756789 -122.85251493 46.49581187 -124.734375 50.04296875 C-126.23937336 52.37014214 -127.99585053 54.08863523 -130 56 C-133.56563291 59.40597771 -135.80069917 62.60139833 -138 67 C-138.99 66.67 -139.98 66.34 -141 66 C-141 64.35 -141 62.7 -141 61 C-142.485 61.495 -142.485 61.495 -144 62 C-143.47731534 59.23723823 -142.89130413 56.6739124 -142 54 C-141.01 54 -140.02 54 -139 54 C-138.67 51.03 -138.34 48.06 -138 45 C-136.68 45 -135.36 45 -134 45 C-133.92394531 44.41347656 -133.84789062 43.82695313 -133.76953125 43.22265625 C-132.73812425 40.24361775 -131.21264352 39.28486359 -128.6875 37.4375 C-127.90761719 36.85871094 -127.12773437 36.27992187 -126.32421875 35.68359375 C-125.55722656 35.12800781 -124.79023438 34.57242188 -124 34 C-123.04287109 33.23429687 -123.04287109 33.23429687 -122.06640625 32.453125 C-115.45586834 27.80450477 -108.03621825 25.22728671 -100 26 C-99.96132812 25.12794922 -99.96132812 25.12794922 -99.921875 24.23828125 C-98.48246444 20.74344121 -95.50120421 19.73439692 -92.25 18.1875 C-91.54190186 17.84493164 -90.83380371 17.50236328 -90.10424805 17.14941406 C-62.58481474 4.27239621 -30.26788873 -0.66669358 0 0 Z " fill="#1D1D1D" transform="translate(257,37)"/>
<path d="M0 0 C7.98016809 -0.02321255 15.96032197 -0.04096044 23.94051552 -0.05181217 C27.646391 -0.05702153 31.35224332 -0.0640837 35.05810547 -0.07543945 C38.63722332 -0.08633768 42.21631895 -0.0922915 45.79545212 -0.09487724 C47.15812912 -0.09671902 48.52080496 -0.10031549 49.88347244 -0.10573006 C51.7981166 -0.11303249 53.71278333 -0.11340884 55.62744141 -0.11352539 C56.71554108 -0.115746 57.80364075 -0.11796661 58.92471313 -0.12025452 C62.02703394 0.00105712 64.9523429 0.42260995 68 1 C68 2.65 68 4.3 68 6 C64.68929162 7.00109515 61.69915231 7.10356134 58.25 7.0625 C57.26515625 7.05347656 56.2803125 7.04445313 55.265625 7.03515625 C54.51796875 7.02355469 53.7703125 7.01195312 53 7 C52.8425837 19.36592489 53.32292352 31.65415863 54 44 C51.36 44 48.72 44 46 44 C46.03029297 43.4016333 46.06058594 42.8032666 46.09179688 42.18676758 C46.6444907 31.11907369 47.18822794 20.08453423 47 9 C46.18015625 9.2165625 45.3603125 9.433125 44.515625 9.65625 C43.43796875 9.9346875 42.3603125 10.213125 41.25 10.5 C40.18265625 10.7784375 39.1153125 11.056875 38.015625 11.34375 C35 12 35 12 31 12 C31 10.35 31 8.7 31 7 C21.1 8.485 21.1 8.485 11 10 C10.67 13.3 10.34 16.6 10 20 C19.57 19.67 29.14 19.34 39 19 C39.66 22.3 40.32 25.6 41 29 C40.505 29.495 40.505 29.495 40 30 C39.62831518 32.160418 39.30208609 34.32875622 39 36.5 C38.11111111 42.88888889 38.11111111 42.88888889 37 44 C34.57506627 44.10085654 32.17924339 44.13972332 29.75390625 44.1328125 C29.02759506 44.13376923 28.30128387 44.13472595 27.55296326 44.13571167 C26.0137422 44.13639344 24.47451829 44.13453937 22.93530273 44.13037109 C20.57594343 44.12503043 18.21677516 44.13031215 15.85742188 44.13671875 C14.36458291 44.13605782 12.87174407 44.13477634 11.37890625 44.1328125 C10.31634361 44.13584885 10.31634361 44.13584885 9.23231506 44.13894653 C4.22991429 44.11495714 4.22991429 44.11495714 2 43 C1.5859375 40.71484375 1.5859375 40.71484375 1.375 37.9375 C1.30023438 37.01839844 1.22546875 36.09929687 1.1484375 35.15234375 C1.09945312 34.44207031 1.05046875 33.73179687 1 33 C10.43078051 33.76054682 19.68556572 35.38671563 29 37 C29.0270043 35.54176788 29.04639787 34.08339325 29.0625 32.625 C29.07410156 31.81289063 29.08570313 31.00078125 29.09765625 30.1640625 C29.14466334 27.95062858 29.14466334 27.95062858 28 26 C19.09 26 10.18 26 1 26 C1.0625 14.6875 1.0625 14.6875 1.09008789 11.1315918 C1.09258545 10.20515869 1.09508301 9.27872559 1.09765625 8.32421875 C1.10289307 7.37635498 1.10812988 6.42849121 1.11352539 5.4519043 C1.10498854 2.86161319 1.10498854 2.86161319 0 0 Z " fill="#232323" transform="translate(216,291)"/>
<path d="M0 0 C0 0.66 0 1.32 0 2 C0.66 2 1.32 2 2 2 C1.67 3.32 1.34 4.64 1 6 C0.34 6 -0.32 6 -1 6 C-1.33 6.99 -1.66 7.98 -2 9 C-2.99 9.495 -2.99 9.495 -4 10 C-2.38746547 11.61253453 -0.66400957 11.24791423 1.5625 11.3125 C6.151962 11.27344075 8.98668985 10.33737836 12.921875 8.08984375 C17.95685799 5.44931696 23.34102336 4 29 4 C28.67 5.32 28.34 6.64 28 8 C30.10192697 8.24887295 32.20673964 8.4734719 34.3125 8.6875 C35.48425781 8.81511719 36.65601563 8.94273437 37.86328125 9.07421875 C40.98209507 9.33097235 40.98209507 9.33097235 42.73046875 7.51953125 C43.14941406 7.01808594 43.56835938 6.51664062 44 6 C44.99 6 45.98 6 47 6 C48.125 9.75 48.125 9.75 47 12 C47.99 12.495 47.99 12.495 49 13 C49.71247732 14.6476038 50.37400383 16.31763529 51 18 C51.65603325 19.33859725 52.32091246 20.67294976 53 22 C45.68617657 24.60652218 38.33093988 26.40655168 30.75 28.0625 C29.61175781 28.31837891 28.47351563 28.57425781 27.30078125 28.83789062 C16.24986157 31.27762261 5.3578887 33.46149435 -6 33 C-5.67 32.01 -5.34 31.02 -5 30 C-5.83144531 30.01160156 -6.66289062 30.02320313 -7.51953125 30.03515625 C-8.60621094 30.04417969 -9.69289062 30.05320312 -10.8125 30.0625 C-11.89144531 30.07410156 -12.97039062 30.08570313 -14.08203125 30.09765625 C-17 30 -17 30 -20 29 C-20 28.34 -20 27.68 -20 27 C-20.66 27 -21.32 27 -22 27 C-22 26.34 -22 25.68 -22 25 C-21.11957031 24.87882812 -20.23914063 24.75765625 -19.33203125 24.6328125 C-17.58986328 24.38144531 -17.58986328 24.38144531 -15.8125 24.125 C-14.66394531 23.96257812 -13.51539063 23.80015625 -12.33203125 23.6328125 C-9.31275375 23.05939755 -6.79424152 22.25240957 -4 21 C-4 19.68 -4 18.36 -4 17 C-7.3 16.34 -10.6 15.68 -14 15 C-14.33 15.99 -14.66 16.98 -15 18 C-16.125 11.25 -16.125 11.25 -15 9 C-15.66 8.67 -16.32 8.34 -17 8 C-17 7.34 -17 6.68 -17 6 C-17.66 5.34 -18.32 4.68 -19 4 C-17.02 3.67 -15.04 3.34 -13 3 C-12.67 3.99 -12.34 4.98 -12 6 C-11.67 5.34 -11.34 4.68 -11 4 C-10.01 3.67 -9.02 3.34 -8 3 C-7.67 2.34 -7.34 1.68 -7 1 C-4.61370553 0.38812962 -2.46459429 0 0 0 Z M20.6875 17.25 C19.66720703 17.27707031 18.64691406 17.30414063 17.59570312 17.33203125 C11.68670617 17.56884949 7.25344493 18.24360858 2 21 C2 22.32 2 23.64 2 25 C6.455 24.505 6.455 24.505 11 24 C11 24.66 11 25.32 11 26 C10.34 26.66 9.68 27.32 9 28 C11.31 28 13.62 28 16 28 C16.74957157 24.52852158 16.74957157 24.52852158 17 21 C18.41543415 20.80341192 19.83244031 20.61812454 21.25 20.4375 C22.03890625 20.33308594 22.8278125 20.22867187 23.640625 20.12109375 C26 20 26 20 28.09375 20.5625 C31.23282337 21.28294307 33.31633666 19.52480872 36 18 C30.93858115 16.48754456 25.90923704 17.03473789 20.6875 17.25 Z " fill="#232323" transform="translate(246,408)"/>
<path d="M0 0 C-0.14179038 2.22942748 -0.28859698 4.45853628 -0.4375 6.6875 C-0.51871094 7.92886719 -0.59992188 9.17023438 -0.68359375 10.44921875 C-1 14 -1 14 -2 19 C6.415 18.505 6.415 18.505 15 18 C15.020625 20.64 15.04125 23.28 15.0625 26 C15.071604 26.8146875 15.08070801 27.629375 15.09008789 28.46875 C15.10846844 33.40185334 14.70473051 38.11682799 14 43 C8.0277381 44.30643229 2.07928649 44.1470264 -4 44.125 C-5.60101563 44.13080078 -5.60101563 44.13080078 -7.234375 44.13671875 C-12.26129735 44.13046636 -17.06335054 44.07989207 -22 43 C-23.23375205 39.16460023 -23.16169955 35.33274176 -23.16796875 31.34765625 C-23.17129715 30.61050888 -23.17462555 29.87336151 -23.17805481 29.11387634 C-23.18310673 27.55810162 -23.18546367 26.00231612 -23.18530273 24.4465332 C-23.18748922 22.07419901 -23.20566285 19.70233013 -23.22460938 17.33007812 C-23.22754372 15.81510575 -23.22952824 14.30013118 -23.23046875 12.78515625 C-23.23765427 12.0798024 -23.24483978 11.37444855 -23.25224304 10.64772034 C-23.23383203 6.65379609 -22.76073105 3.59691578 -21 0 C-3.26213592 -1.63106796 -3.26213592 -1.63106796 0 0 Z M-13 9 C-13.66 12.3 -14.32 15.6 -15 19 C-12.36 19 -9.72 19 -7 19 C-7 15.37 -7 11.74 -7 8 C-9.36380344 7.91915479 -9.36380344 7.91915479 -13 9 Z M-16 25 C-16.33 27.64 -16.66 30.28 -17 33 C-13.51675433 34.50183418 -10.23307278 35.46437195 -6.5 36.125 C-5.12328125 36.37636719 -5.12328125 36.37636719 -3.71875 36.6328125 C-0.63140341 37.11153526 -0.63140341 37.11153526 4 37 C4.99 33.04 5.98 29.08 7 25 C3.12234142 24.03058536 0.0390366 23.8665122 -3.9375 23.875 C-5.14277344 23.87242187 -6.34804687 23.86984375 -7.58984375 23.8671875 C-10.53222592 23.98178199 -13.14489223 24.31737461 -16 25 Z " fill="#232323" transform="translate(211,237)"/>
<path d="M0 0 C1.03898437 0.04382813 2.07796875 0.08765625 3.1484375 0.1328125 C10.74055632 0.49055632 10.74055632 0.49055632 11.875 1.625 C11.91563832 3.29117115 11.917721 4.95888095 11.875 6.625 C8.12555444 7.12921729 4.37536087 7.62764031 0.625 8.125 C-0.43847656 8.26808594 -1.50195312 8.41117188 -2.59765625 8.55859375 C-4.13486328 8.76162109 -4.13486328 8.76162109 -5.703125 8.96875 C-6.64575195 9.09443359 -7.58837891 9.22011719 -8.55957031 9.34960938 C-11.125 9.625 -11.125 9.625 -15.125 9.625 C-15.785 12.925 -16.445 16.225 -17.125 19.625 C-7.225 19.295 2.675 18.965 12.875 18.625 C12.895625 21.63625 12.91625 24.6475 12.9375 27.75 C12.946604 28.68730957 12.95570801 29.62461914 12.96508789 30.59033203 C12.9798195 35.05258507 12.78929083 39.23352437 11.875 43.625 C5.9027381 44.93143229 -0.04571351 44.7720264 -6.125 44.75 C-7.72601563 44.75580078 -7.72601563 44.75580078 -9.359375 44.76171875 C-14.38629735 44.75546636 -19.18835054 44.70489207 -24.125 43.625 C-25.30071451 39.95089215 -25.19866746 36.45570817 -25.125 32.625 C-18.07628548 33.02738725 -11.55860454 34.11018862 -4.75390625 36.00390625 C-1.92640765 36.7782839 -1.92640765 36.7782839 1.875 36.625 C2.535 33.325 3.195 30.025 3.875 26.625 C-4.93704418 23.68765194 -16.00805323 25.68992854 -25.125 26.625 C-25.1793251 23.60392098 -25.21882927 20.58383472 -25.25 17.5625 C-25.26675781 16.71494141 -25.28351563 15.86738281 -25.30078125 14.99414062 C-25.34096135 9.79081799 -24.82245815 5.55030179 -23.125 0.625 C-15.34181676 -0.2867169 -7.82009271 -0.40309756 0 0 Z " fill="#242424" transform="translate(344.125,236.375)"/>
<path d="M0 0 C0.79720459 0.00265869 1.59440918 0.00531738 2.41577148 0.00805664 C20.52715974 0.15215974 20.52715974 0.15215974 22.5 2.125 C23.52460064 9.16011005 23.65157577 16.08733912 23.625 23.1875 C23.63080078 24.74307617 23.63080078 24.74307617 23.63671875 26.33007812 C23.62951206 32.01255671 23.493732 37.52218206 22.5 43.125 C19.4172936 45.97057514 15.50113553 45.27888983 11.5 45.125 C11.61646475 43.45771516 11.74369761 41.791182 11.875 40.125 C11.94460937 39.196875 12.01421875 38.26875 12.0859375 37.3125 C12.57738404 33.52928889 13.57472719 29.82609122 14.5 26.125 C7.24 26.125 -0.02 26.125 -7.5 26.125 C-7.83 32.065 -8.16 38.005 -8.5 44.125 C-10.15 44.125 -11.8 44.125 -13.5 44.125 C-17.15025253 36.82449494 -15.71359823 25.66403784 -15.75 17.6875 C-15.770625 16.53056641 -15.79125 15.37363281 -15.8125 14.18164062 C-15.81765625 13.07111328 -15.8228125 11.96058594 -15.828125 10.81640625 C-15.8374707 9.81810791 -15.84681641 8.81980957 -15.85644531 7.79125977 C-15.43833192 4.66371431 -14.73648662 3.33212563 -12.5 1.125 C-8.51419728 -0.39621466 -4.21273919 -0.02489128 0 0 Z M3.1875 8.625 C2.07665039 8.83962891 2.07665039 8.83962891 0.94335938 9.05859375 C-0.87189772 9.40993383 -2.68606392 9.76690216 -4.5 10.125 C-5.81626692 13.74473402 -6.5 16.22067131 -6.5 20.125 C0.76 20.125 8.02 20.125 15.5 20.125 C16.82229189 17.48041621 16.59677194 15.44738699 16.5625 12.5 C16.55347656 11.49710938 16.54445313 10.49421875 16.53515625 9.4609375 C16.52355469 8.69007813 16.51195312 7.91921875 16.5 7.125 C11.90191344 6.9073391 7.67107934 7.73549632 3.1875 8.625 Z " fill="#222222" transform="translate(161.5,235.875)"/>
<path d="M0 0 C1.9375 1.5625 1.9375 1.5625 3 4 C2.5292555 9.59187401 1.41118576 14.84055035 -0.0390625 20.25 C-0.24083099 21.01809494 -0.44259949 21.78618988 -0.65048218 22.57756042 C-1.30290777 25.05327002 -1.96339458 27.52672913 -2.625 30 C-3.07815549 31.70612797 -3.53128031 33.41226409 -3.984375 35.1184082 C-6.57280964 44.83162531 -9.21365116 54.52896985 -12 64.1875 C-12.2779541 65.15880859 -12.5559082 66.13011719 -12.84228516 67.13085938 C-13.10058105 68.00935547 -13.35887695 68.88785156 -13.625 69.79296875 C-13.84414062 70.5408667 -14.06328125 71.28876465 -14.2890625 72.05932617 C-15 74 -15 74 -17 77 C-18.875 77.36328125 -18.875 77.36328125 -21 77.3125 C-21.70125 77.30863281 -22.4025 77.30476563 -23.125 77.30078125 C-25 77 -25 77 -27 75 C-27.77692947 67.48968175 -25.57828308 60.74671712 -23.5625 53.5625 C-23.20401219 52.25887433 -22.8464463 50.95499483 -22.48974609 49.65087891 C-21.73220364 46.88617485 -20.96908558 44.12308727 -20.20263672 41.36083984 C-18.95628078 36.85758483 -17.74427568 32.34540104 -16.53515625 27.83203125 C-15.9294637 25.57919552 -15.32316092 23.32652522 -14.71652222 21.07394409 C-14.32384544 19.61419456 -13.93217398 18.1541742 -13.54153442 16.69387817 C-12.99282121 14.64632123 -12.43853464 12.6003516 -11.8828125 10.5546875 C-11.40932373 8.79874268 -11.40932373 8.79874268 -10.92626953 7.00732422 C-10.14153825 4.45953298 -9.38415818 2.2711466 -8 0 C-5.03475663 -1.48262169 -3.14877613 -0.83538959 0 0 Z " fill="#D51415" transform="translate(265,134)"/>
<path d="M0 0 C0 0.66 0 1.32 0 2 C1.07378906 1.98839844 2.14757812 1.97679687 3.25390625 1.96484375 C4.69010241 1.95545685 6.12630048 1.94635762 7.5625 1.9375 C8.61920898 1.92493164 8.61920898 1.92493164 9.69726562 1.91210938 C14.24024798 1.89117397 18.51784892 2.25199318 23 3 C24.24911667 10.65083958 24.09053426 18.27440986 24 26 C24.66 26.33 25.32 26.66 26 27 C25.505 27.495 25.505 27.495 25 28 C22.80949979 27.90982004 20.621534 27.75333792 18.4375 27.5625 C17.23996094 27.46066406 16.04242188 27.35882813 14.80859375 27.25390625 C13.88175781 27.17011719 12.95492188 27.08632813 12 27 C12.70125 27.70125 13.4025 28.4025 14.125 29.125 C14.57488281 29.58390625 15.02476562 30.0428125 15.48828125 30.515625 C16.51285129 31.52166276 17.57521474 32.490347 18.66796875 33.421875 C21.9183428 36.29393948 22.92135244 37.3146427 23.4375 41.8125 C23 45 23 45 22 46 C19.7578125 46.484375 19.7578125 46.484375 17 46 C15.03387604 43.76495332 13.47872 41.72178862 11.875 39.25 C11.01833807 37.98430129 10.16156994 36.71867444 9.3046875 35.453125 C8.00202193 33.52059058 6.75384886 31.59129623 5.55078125 29.59375 C3.30272033 27.28340024 1.47381313 27.39876768 -1.6875 27.25 C-3.440625 27.1675 -5.19375 27.085 -7 27 C-7.33 33.27 -7.66 39.54 -8 46 C-9.65 46 -11.3 46 -13 46 C-14.27664635 42.09019131 -14.14404634 38.15827462 -14.1328125 34.09375 C-14.13376923 33.33203491 -14.13472595 32.57031982 -14.13571167 31.78552246 C-14.13639078 30.17846595 -14.13455528 28.57140667 -14.13037109 26.96435547 C-14.12501902 24.50872621 -14.13032518 22.05327984 -14.13671875 19.59765625 C-14.13605792 18.03385376 -14.13477666 16.47005139 -14.1328125 14.90625 C-14.13483673 14.17386108 -14.13686096 13.44147217 -14.13894653 12.68688965 C-14.12349999 9.31786489 -14.05161568 6.22063828 -13 3 C-11.2092015 2.49689942 -9.41733089 1.99761372 -7.625 1.5 C-6.62726563 1.2215625 -5.62953125 0.943125 -4.6015625 0.65625 C-2 0 -2 0 0 0 Z M-5 13 C-5.62931533 15.67595823 -5.78130812 18.24448232 -6 21 C-4.41586641 22.58413359 -2.79022215 22.12979629 -0.59765625 22.1328125 C0.29244141 22.13410156 1.18253906 22.13539063 2.09960938 22.13671875 C3.03611328 22.13285156 3.97261719 22.12898438 4.9375 22.125 C5.87013672 22.12886719 6.80277344 22.13273437 7.76367188 22.13671875 C9.10075195 22.13478516 9.10075195 22.13478516 10.46484375 22.1328125 C11.69642212 22.13112061 11.69642212 22.13112061 12.95288086 22.12939453 C15.06616024 22.1293784 15.06616024 22.1293784 17 21 C17 17.04 17 13.08 17 9 C5.15653768 8.35323935 5.15653768 8.35323935 -5 13 Z " fill="#262626" transform="translate(300,289)"/>
<path d="M0 0 C1.85772162 0.08984301 3.71247985 0.24611861 5.5625 0.4375 C7.08037109 0.59025391 7.08037109 0.59025391 8.62890625 0.74609375 C9.80259766 0.87177734 9.80259766 0.87177734 11 1 C10.3598792 7.78528053 8.85425223 13.20107517 7 20 C14.59 20 22.18 20 30 20 C30 16.37 30 12.74 30 9 C30.27945051 6.65960196 30.58744247 4.32063609 31 2 C32.65 2 34.3 2 36 2 C36.99906905 6.15104758 37.12906342 10.04925761 37.1328125 14.3125 C37.13376923 15.00384033 37.13472595 15.69518066 37.13571167 16.4074707 C37.13638946 17.86311942 37.13456324 19.31877122 37.13037109 20.77441406 C37.12501712 22.9929081 37.13032966 25.2111997 37.13671875 27.4296875 C37.1360579 28.84895878 37.13477659 30.26822993 37.1328125 31.6875 C37.13168457 32.97011719 37.13055664 34.25273437 37.12939453 35.57421875 C37.01800223 38.52338253 36.68849253 41.13937166 36 44 C32.32589215 45.17571451 28.83070817 45.07366746 25 45 C24.81869977 40.37684419 25.10930632 37.20154151 27 33 C27.99 29.535 27.99 29.535 29 26 C21.41 26 13.82 26 6 26 C5.67 31.94 5.34 37.88 5 44 C3.35 44 1.7 44 0 44 C-0.98685444 39.06327779 -1.14588972 34.36368461 -1.1328125 29.35546875 C-1.13376923 28.54507645 -1.13472595 27.73468414 -1.13571167 26.8997345 C-1.13638894 25.19788535 -1.1345664 23.49603356 -1.13037109 21.79418945 C-1.12498144 19.17849016 -1.13034917 16.56295987 -1.13671875 13.94726562 C-1.13605857 12.29166629 -1.13477866 10.63606705 -1.1328125 8.98046875 C-1.13483673 8.19512253 -1.13686096 7.40977631 -1.13894653 6.60063171 C-1.11497447 1.11497447 -1.11497447 1.11497447 0 0 Z " fill="#252525" transform="translate(230,236)"/>
<path d="M0 0 C2.296875 0.06640625 2.296875 0.06640625 5 1 C7.140625 3.58984375 7.140625 3.58984375 9.25 6.9375 C14.75758424 15.37167929 21.03246333 22.7814348 29 29 C29.66 29.66 30.32 30.32 31 31 C31.886875 31.721875 32.77375 32.44375 33.6875 33.1875 C36 36 36 36 35.875 39.75 C35 43 35 43 34 44 C31.49075847 44.10087212 29.00963616 44.13972032 26.5 44.1328125 C25.74912109 44.13376923 24.99824219 44.13472595 24.22460938 44.13571167 C22.63411373 44.13639338 21.04361533 44.13453972 19.453125 44.13037109 C17.01035345 44.12502267 14.56776579 44.13031634 12.125 44.13671875 C10.58333293 44.13605797 9.04166597 44.1347768 7.5 44.1328125 C6.76458984 44.13483673 6.02917969 44.13686096 5.27148438 44.13894653 C0.11495161 44.11495161 0.11495161 44.11495161 -1 43 C-2.14953417 36.19184339 -2.14956585 29.45322024 -2.125 22.5625 C-2.12886719 21.48162109 -2.13273438 20.40074219 -2.13671875 19.28710938 C-2.11589253 2.11589253 -2.11589253 2.11589253 0 0 Z M7 16 C5.59545452 22.11980533 4.76731085 27.71739294 5 34 C9.95 34.99 14.9 35.98 20 37 C20.66 35.68 21.32 34.36 22 33 C20.07815806 28.57682942 16.63282814 25.17863614 13.375 21.6875 C12.87226563 21.13771484 12.36953125 20.58792969 11.8515625 20.02148438 C10.59174471 18.65837508 9.29866002 17.32615608 8 16 C7.67 16 7.34 16 7 16 Z " fill="#252525" transform="translate(141,291)"/>
<path d="M0 0 C0 0.66 0 1.32 0 2 C-0.99 2.33 -1.98 2.66 -3 3 C-0.03312999 4.64826111 2.65626525 5.44271087 6 6 C6 5.34 6 4.68 6 4 C7.65 4 9.3 4 11 4 C11 3.34 11 2.68 11 2 C12.81332154 2.30769707 14.62564345 2.62129064 16.4375 2.9375 C17.44683594 3.11152344 18.45617187 3.28554688 19.49609375 3.46484375 C22 4 22 4 23 5 C24.9590982 5.05718449 26.91844565 5.10987664 28.87817383 5.13818359 C37.10745193 5.30489848 42.89495593 6.27499498 50.11328125 10.5234375 C53.40152066 12.20537863 56.37606223 12.83232667 60 13.5 C65.72351116 14.6338391 65.72351116 14.6338391 68.3125 18.0625 C68.869375 19.031875 69.42625 20.00125 70 21 C72.68208416 22.11797246 75.10660659 22.51776777 78 23 C78 23.66 78 24.32 78 25 C75.03 25.66 72.06 26.32 69 27 C68.505 29.475 68.505 29.475 68 32 C66.68 31.34 65.36 30.68 64 30 C64 29.34 64 28.68 64 28 C64.66 28 65.32 28 66 28 C65.05439197 24.81931844 64.36909169 23.27931263 61.6875 21.25 C59.04556451 20.02119279 56.84667269 19.54222337 54 19 C52.906875 18.484375 51.81375 17.96875 50.6875 17.4375 C46.35357959 15.7480056 43.59937103 15.84408912 39 16 C37 15 37 15 36 12 C31.15220585 11.04945213 28.47701285 10.99712583 24 13 C21.1875 13.125 21.1875 13.125 19 13 C19 12.34 19 11.68 19 11 C15.84724603 11.47769 13.43933134 12.25029851 10.5 13.5625 C7.26560853 14.89091078 5.41907614 15.3108251 2 15 C2 15.66 2 16.32 2 17 C0.02 17.33 -1.96 17.66 -4 18 C-3 15 -3 15 -0.71484375 13.83203125 C0.20167969 13.49558594 1.11820312 13.15914062 2.0625 12.8125 C2.98160156 12.46832031 3.90070313 12.12414063 4.84765625 11.76953125 C5.55792969 11.51558594 6.26820313 11.26164062 7 11 C5.11401939 11 3.26867638 11.58734053 1.4375 12 C0.61121094 12.185625 -0.21507812 12.37125 -1.06640625 12.5625 C-2.02353516 12.7790625 -2.02353516 12.7790625 -3 13 C-3 12.34 -3 11.68 -3 11 C-4.32 11 -5.64 11 -7 11 C-7.66 12.32 -8.32 13.64 -9 15 C-11.64 14.67 -14.28 14.34 -17 14 C-16.835 13.401875 -16.67 12.80375 -16.5 12.1875 C-15.8885876 9.88655664 -15.8885876 9.88655664 -16 7 C-15.34 6.67 -14.68 6.34 -14 6 C-17.89459074 5.78918149 -17.89459074 5.78918149 -21 7 C-20.67 5.02 -20.34 3.04 -20 1 C-13.29980211 0.29867087 -6.73742646 -0.11044961 0 0 Z " fill="#363636" transform="translate(257,37)"/>
<path d="M0 0 C2 2 2 2 2.59375 5.12890625 C1.7280423 10.77309263 -1.4075668 13.18057259 -5.5 16.9375 C-6.21542969 17.62134766 -6.93085938 18.30519531 -7.66796875 19.00976562 C-9.43055305 20.69009599 -11.20730539 22.3519288 -13 24 C-8.63839348 29.24492187 -3.9917881 33.93973547 1.0234375 38.5703125 C3 41 3 41 3.42578125 43.65625 C3 46 3 46 0.8125 48.375 C-2 50 -2 50 -4.37402344 49.86572266 C-9.73259064 48.09912919 -13.35598396 43.2966724 -17.25 39.375 C-18.17296875 38.48425781 -19.0959375 37.59351563 -20.046875 36.67578125 C-20.9234375 35.80050781 -21.8 34.92523438 -22.703125 34.0234375 C-23.50395508 33.22856934 -24.30478516 32.43370117 -25.12988281 31.61474609 C-27.44763918 28.37412329 -27.79420664 25.94325691 -28 22 C-27.05859375 20.05859375 -27.05859375 20.05859375 -25.4375 18.4375 C-24.80328125 17.78523438 -24.1690625 17.13296875 -23.515625 16.4609375 C-22.68546875 15.64882812 -21.8553125 14.83671875 -21 14 C-19.82629581 12.80648357 -18.65458279 11.61100724 -17.484375 10.4140625 C-15.0035499 7.89218432 -12.51863448 5.37487325 -10.01171875 2.87890625 C-9.48022217 2.3485376 -8.94872559 1.81816895 -8.40112305 1.27172852 C-5.46256908 -1.39544828 -3.69585986 -1.01636146 0 0 Z " fill="#D40B0B" transform="translate(232,148)"/>
<path d="M0 0 C5.20876724 0.86812787 7.69247498 3.9332591 11.375 7.5625 C12.4960426 8.60172211 13.61854718 9.63936844 14.7421875 10.67578125 C15.93379477 11.8031008 17.12389356 12.93201692 18.3125 14.0625 C18.89265869 14.59576904 19.47281738 15.12903809 20.07055664 15.6784668 C23.01165145 18.54532462 24.27038559 20.19163013 25.4140625 24.24609375 C25.37217345 27.80247437 25.25916868 28.67833132 22.8125 31.125 C22.17183594 31.77597656 21.53117187 32.42695313 20.87109375 33.09765625 C19.63552734 34.31775391 19.63552734 34.31775391 18.375 35.5625 C17.25841359 36.7664744 16.14541818 37.97378466 15.03515625 39.18359375 C13.81661035 40.47798208 12.59654391 41.77094057 11.375 43.0625 C10.79419678 43.69873291 10.21339355 44.33496582 9.61499023 44.99047852 C6.50079897 48.1955568 5.12426698 49.45809394 0.5625 50.09375 C-2.625 49.5625 -2.625 49.5625 -4.625 47.5625 C-5.21875 44.43359375 -5.21875 44.43359375 -4.625 40.5625 C-2.46730455 37.54723982 0.15069392 35.12596207 2.875 32.625 C3.59042969 31.94115234 4.30585938 31.25730469 5.04296875 30.55273438 C6.80555305 28.87240401 8.58230539 27.2105712 10.375 25.5625 C6.95365124 21.44575515 3.48111896 17.65489017 -0.5 14.0625 C-3.64423711 10.97110721 -4.53278401 10.09064614 -5.3125 5.625 C-4.46064601 1.83037767 -3.83104651 0.82093854 0 0 Z " fill="#D51919" transform="translate(275.625,147.4375)"/>
<path d="M0 0 C1.06734375 0.00064453 2.1346875 0.00128906 3.234375 0.00195312 C8.25584391 0.03005836 13.06913155 0.11743306 18 1.1875 C18.495 3.6625 18.495 3.6625 19 6.1875 C16 7.1875 16 7.1875 4 7.1875 C4 16.7575 4 26.3275 4 36.1875 C8.95 36.8475 13.9 37.5075 19 38.1875 C18.34 40.1675 17.68 42.1475 17 44.1875 C12.33692986 44.23687279 7.67401127 44.27320627 3.01074219 44.29736328 C1.42380117 44.30743188 -0.16312125 44.32108767 -1.75 44.33837891 C-4.02869247 44.36259001 -6.30714006 44.37397422 -8.5859375 44.3828125 C-9.29744965 44.39313507 -10.00896179 44.40345764 -10.74203491 44.41409302 C-12.49631665 44.41449422 -14.24996709 44.30952209 -16 44.1875 C-18 42.1875 -18 42.1875 -18.1953125 40.0234375 C-18.17210937 39.21132813 -18.14890625 38.39921875 -18.125 37.5625 C-18.09792969 36.33660156 -18.09792969 36.33660156 -18.0703125 35.0859375 C-18.04710937 34.45945312 -18.02390625 33.83296875 -18 33.1875 C-8.58997722 34.15105353 -8.58997722 34.15105353 -4 35.1875 C-2.69524382 32.57798764 -2.88698428 30.66048715 -2.90234375 27.7421875 C-2.90556641 26.66582031 -2.90878906 25.58945312 -2.91210938 24.48046875 C-2.92467773 22.78857422 -2.92467773 22.78857422 -2.9375 21.0625 C-2.94201172 19.92683594 -2.94652344 18.79117187 -2.95117188 17.62109375 C-2.96298385 14.80984362 -2.97945493 11.9986977 -3 9.1875 C-3.83144531 9.4040625 -4.66289062 9.620625 -5.51953125 9.84375 C-6.60621094 10.1221875 -7.69289062 10.400625 -8.8125 10.6875 C-9.89144531 10.9659375 -10.97039062 11.244375 -12.08203125 11.53125 C-15 12.1875 -15 12.1875 -18 12.1875 C-18 8.8875 -18 5.5875 -18 2.1875 C-12.10184013 -0.4031848 -6.31129168 -0.07241216 0 0 Z " fill="#262626" transform="translate(196,290.8125)"/>
<path d="M0 0 C0.70837509 0.00718552 1.41675018 0.01437103 2.14659119 0.02177429 C3.23749306 0.02246162 3.23749306 0.02246162 4.35043335 0.02316284 C5.88788993 0.02618468 7.42534346 0.03406899 8.9627533 0.0464325 C11.32427229 0.06469731 13.68539954 0.06694214 16.04698181 0.06669617 C17.53852168 0.07161101 19.03005888 0.07743918 20.52159119 0.08427429 C21.23199051 0.08538712 21.94238983 0.08649994 22.67431641 0.08764648 C27.65163129 0.13618939 27.65163129 0.13618939 28.76768494 1.25224304 C28.76768494 2.90224304 28.76768494 4.55224304 28.76768494 6.25224304 C24.14768494 6.58224304 19.52768494 6.91224304 14.76768494 7.25224304 C14.76768494 16.82224304 14.76768494 26.39224304 14.76768494 36.25224304 C21.69768494 36.74724304 21.69768494 36.74724304 28.76768494 37.25224304 C29.76768494 40.25224304 29.76768494 40.25224304 28.76768494 43.25224304 C22.9673529 44.49163023 17.23160455 44.43599611 11.33018494 44.43974304 C10.31891541 44.45198914 9.30764587 44.46423523 8.26573181 44.47685242 C2.69451532 44.48775499 -1.97296431 44.12371384 -7.23231506 42.25224304 C-7.23231506 38.95224304 -7.23231506 35.65224304 -7.23231506 32.25224304 C-5.48201744 32.56307176 -3.73208812 32.87597484 -1.98231506 33.18974304 C-1.00778381 33.36376648 -0.03325256 33.53778992 0.97080994 33.71708679 C3.25211962 34.15359437 5.51433967 34.68890672 7.76768494 35.25224304 C7.76768494 26.34224304 7.76768494 17.43224304 7.76768494 8.25224304 C2.81768494 9.73724304 2.81768494 9.73724304 -2.23231506 11.25224304 C-3.88231506 11.25224304 -5.53231506 11.25224304 -7.23231506 11.25224304 C-7.28631243 9.7943142 -7.32510683 8.33581592 -7.35731506 6.87724304 C-7.39211975 5.65907898 -7.39211975 5.65907898 -7.42762756 4.41630554 C-7.00481402 -0.26846856 -3.97322385 0.01859733 0 0 Z " fill="#242424" transform="translate(276.23231506347656,236.7477569580078)"/>
<path d="M0 0 C-0.66015625 2.44140625 -0.66015625 2.44140625 -2 5 C-4.37109375 5.71484375 -4.37109375 5.71484375 -7.4375 5.9375 C-13.51318483 6.61857011 -18.84917432 8.14518924 -24.625 10.125 C-31.54301147 12.45821668 -37.62788368 13.89459389 -45 13 C-45.33 12.34 -45.66 11.68 -46 11 C-48.83749912 12.07629277 -49.8550586 12.74305842 -51.375 15.4375 C-53.4909255 18.77415175 -55.29857638 19.69361519 -59 21 C-61.00636471 20.70740515 -63.00714063 20.37366113 -65 20 C-68.28861095 20.8447856 -68.28861095 20.8447856 -71 22 C-71 20.02 -71 18.04 -71 16 C-55.93439956 7.36483877 -39.05362767 3.45983435 -22 1 C-20.71416016 0.80277344 -20.71416016 0.80277344 -19.40234375 0.6015625 C-12.96344788 -0.2631894 -6.48386199 -0.09019283 0 0 Z " fill="#282828" transform="translate(238,39)"/>
<path d="M0 0 C-0.29228113 3.33815812 -0.63727594 6.66877554 -1 10 C-1.12246094 11.14339844 -1.24492187 12.28679687 -1.37109375 13.46484375 C-2.24757165 20.60852642 -3.54191494 26.65458179 -7 33 C-13.0546875 33.1953125 -13.0546875 33.1953125 -15 33 C-17 31 -17 31 -17.3125 27.5625 C-17.16693209 22.27353253 -16.18001109 16.83181563 -14 12 C-11.890625 10.6796875 -11.890625 10.6796875 -10 10 C-10.33 8.35 -10.66 6.7 -11 5 C-10.34 5 -9.68 5 -9 5 C-9 4.34 -9 3.68 -9 3 C-5.63316085 0.56839395 -4.26649636 0 0 0 Z " fill="#D30404" transform="translate(255,178)"/>
<path d="M0 0 C9.71907008 0.38415297 14.40986231 3.26350554 21.0546875 10.19140625 C23.86464266 12.8038746 27.00925916 14.74687745 30.27734375 16.73828125 C30.84582031 17.15464844 31.41429687 17.57101563 32 18 C32 18.66 32 19.32 32 20 C24.66347687 22.32323232 24.66347687 22.32323232 21.5625 20.8125 C20 19 20 19 19 16 C16.4060645 15.11148941 16.4060645 15.11148941 13.3125 14.5625 C8.32749851 13.43359621 4.87617637 12.33781854 1 9 C1 8.34 1 7.68 1 7 C3.31 7.33 5.62 7.66 8 8 C7.4225 7.59007813 6.845 7.18015625 6.25 6.7578125 C5.5075 6.21898438 4.765 5.68015625 4 5.125 C3.2575 4.59132813 2.515 4.05765625 1.75 3.5078125 C1.1725 3.01023437 0.595 2.51265625 0 2 C0 1.34 0 0.68 0 0 Z " fill="#282828" transform="translate(334,64)"/>
<path d="M0 0 C2.64 0.33 5.28 0.66 8 1 C9.16552619 5.19589427 9.08954032 5.82091936 7 10 C-1.91 10 -10.82 10 -20 10 C-20.33 8.68 -20.66 7.36 -21 6 C-20.34 6 -19.68 6 -19 6 C-18.7525 5.360625 -18.505 4.72125 -18.25 4.0625 C-17 2 -17 2 -15.125 1.1875 C-12.82969717 0.98497328 -11.18266076 1.29843047 -9 2 C-9 2.66 -9 3.32 -9 4 C-6.03 4 -3.06 4 0 4 C0 2.68 0 1.36 0 0 Z " fill="#131313" transform="translate(168,325)"/>
<path d="M0 0 C2.33595238 0.31445513 4.66905466 0.6503582 7 1 C7.99966797 1.04253906 7.99966797 1.04253906 9.01953125 1.0859375 C12.350448 2.62328369 13.14260746 5.95659429 14.4375 9.1875 C14.73462891 9.90059326 15.03175781 10.61368652 15.33789062 11.34838867 C16.24724366 13.55748097 17.12834839 15.77578555 18 18 C18.27086426 18.68610352 18.54172852 19.37220703 18.82080078 20.07910156 C23.21730595 31.34808214 23.21730595 31.34808214 22 35 C18.51649761 31.79151095 16.71757304 29.35118504 15 25 C14.34 24.5875 13.68 24.175 13 23.75 C9.76327862 20.91786879 9.68353621 17.1084124 9 13 C8.79375 11.989375 8.5875 10.97875 8.375 9.9375 C8.25125 9.298125 8.1275 8.65875 8 8 C7.05125 7.79375 6.1025 7.5875 5.125 7.375 C2 6 2 6 0.625 2.875 C0.41875 1.92625 0.2125 0.9775 0 0 Z " fill="#2F2F2F" transform="translate(391,115)"/>
<path d="M0 0 C3.44830801 0.287359 4.76218649 0.76218649 7.25 3.25 C8.97676682 5.96349071 9.63831913 7.83529243 10 11 C10.85851562 10.896875 11.71703125 10.79375 12.6015625 10.6875 C17.0118791 11.09304635 19.23052203 13.12726704 22.375 16 C22.92027344 16.47695312 23.46554687 16.95390625 24.02734375 17.4453125 C25.36317833 18.61709722 26.6832407 19.80682005 28 21 C27.67 22.32 27.34 23.64 27 25 C19 24.23076923 19 24.23076923 16 21 C15.25 18.3125 15.25 18.3125 15 16 C14.01 16.33 13.02 16.66 12 17 C11.67 16.34 11.34 15.68 11 15 C8.98330173 13.86649466 8.98330173 13.86649466 7 13 C7 12.34 7 11.68 7 11 C6.01 10.67 5.02 10.34 4 10 C2.83203125 8.22265625 2.83203125 8.22265625 1.8125 6.0625 C1.46832031 5.35222656 1.12414062 4.64195313 0.76953125 3.91015625 C0 2 0 2 0 0 Z " fill="#3D3D3D" transform="translate(369,88)"/>
<path d="M0 0 C4.37293391 0.41890255 6.52535785 3.32079452 9.25 6.4375 C9.70890625 6.94087891 10.1678125 7.44425781 10.640625 7.96289062 C14 11.72719029 14 11.72719029 14 14 C13.34 14 12.68 14 12 14 C11.67 14.99 11.34 15.98 11 17 C7.9375 18.1875 7.9375 18.1875 5 19 C3.6827656 17.23268551 2.37136412 15.46102239 1.0625 13.6875 C0.33160156 12.70136719 -0.39929688 11.71523438 -1.15234375 10.69921875 C-3 8 -3 8 -4 5 C-3.34 4.54625 -2.68 4.0925 -2 3.625 C-1.34 3.08875 -0.68 2.5525 0 2 C0 1.34 0 0.68 0 0 Z M3 7 C3.66 7.66 4.32 8.32 5 9 C5 8.34 5 7.68 5 7 C4.34 7 3.68 7 3 7 Z " fill="#1A1A1A" transform="translate(97,336)"/>
<path d="M0 0 C0 0.66 0 1.32 0 2 C0.66 2 1.32 2 2 2 C1.67 3.32 1.34 4.64 1 6 C0.34 6 -0.32 6 -1 6 C-1.33 6.99 -1.66 7.98 -2 9 C-2.99 9.495 -2.99 9.495 -4 10 C-3.67 10.66 -3.34 11.32 -3 12 C-4.134375 12.12375 -5.26875 12.2475 -6.4375 12.375 C-8.2009375 12.684375 -8.2009375 12.684375 -10 13 C-10.33 13.66 -10.66 14.32 -11 15 C-9.02 15 -7.04 15 -5 15 C-5 15.33 -5 15.66 -5 16 C-11.75 16.125 -11.75 16.125 -14 15 C-14.33 15.99 -14.66 16.98 -15 18 C-16.125 11.25 -16.125 11.25 -15 9 C-15.66 8.67 -16.32 8.34 -17 8 C-17 7.34 -17 6.68 -17 6 C-17.66 5.34 -18.32 4.68 -19 4 C-17.02 3.67 -15.04 3.34 -13 3 C-12.67 3.99 -12.34 4.98 -12 6 C-11.67 5.34 -11.34 4.68 -11 4 C-10.01 3.67 -9.02 3.34 -8 3 C-7.67 2.34 -7.34 1.68 -7 1 C-4.61370553 0.38812962 -2.46459429 0 0 0 Z " fill="#353535" transform="translate(246,408)"/>
<path d="M0 0 C4.30459148 0.34902093 7.64431248 1.6747291 11.5 3.5 C18.07581431 6.68041652 18.07581431 6.68041652 25.1875 6.4375 C25.785625 6.293125 26.38375 6.14875 27 6 C27.99 6.66 28.98 7.32 30 8 C30.1875 10.625 30.1875 10.625 30 13 C26.61608307 14.06351675 25.4195366 14.21442982 22.1875 12.5625 C21.465625 12.046875 20.74375 11.53125 20 11 C20 11.99 20 12.98 20 14 C19.34 14 18.68 14 18 14 C17.79117188 13.37351562 17.58234375 12.74703125 17.3671875 12.1015625 C16.13338389 9.74462469 16.13338389 9.74462469 13.3203125 9.0234375 C12.26585937 8.80945313 11.21140625 8.59546875 10.125 8.375 C6.43987594 7.6053795 3.28916846 6.85909522 0 5 C0 3.35 0 1.7 0 0 Z " fill="#2E2E2E" transform="translate(163,390)"/>
<path d="M0 0 C5.19644482 0.86607414 7.71572932 3.9208502 11.375 7.5625 C11.91237793 8.09294922 12.44975586 8.62339844 13.00341797 9.16992188 C16.8214158 12.94062824 20.60653156 16.74233001 24.375 20.5625 C24.045 21.2225 23.715 21.8825 23.375 22.5625 C17.765 16.9525 12.155 11.3425 6.375 5.5625 C6.375 6.2225 6.375 6.8825 6.375 7.5625 C4.74946717 9.26930947 3.08384005 10.93910195 1.375 12.5625 C2.035 12.5625 2.695 12.5625 3.375 12.5625 C3.045 13.8825 2.715 15.2025 2.375 16.5625 C-4.43555797 10.84649599 -4.43555797 10.84649599 -5.1875 5.75 C-4.49617693 1.83250258 -3.91464652 0.83885283 0 0 Z " fill="#DA4343" transform="translate(275.625,147.4375)"/>
<path d="M0 0 C1.20270964 2.40541929 1.20316663 4.10366591 1.31640625 6.7890625 C1.35830078 7.73007812 1.40019531 8.67109375 1.44335938 9.640625 C1.48267578 10.62546875 1.52199219 11.6103125 1.5625 12.625 C1.60568359 13.61757813 1.64886719 14.61015625 1.69335938 15.6328125 C1.79961069 18.08839838 1.90164964 20.54408703 2 23 C-0.64 23 -3.28 23 -6 23 C-5.9193749 19.54069307 -5.80651536 16.08318225 -5.6875 12.625 C-5.66494141 11.64015625 -5.64238281 10.6553125 -5.61914062 9.640625 C-5.58369141 8.69960938 -5.54824219 7.75859375 -5.51171875 6.7890625 C-5.48553467 5.91975098 -5.45935059 5.05043945 -5.43237305 4.15478516 C-4.80425932 1.02450185 -3.16358038 0 0 0 Z " fill="#343434" transform="translate(268,312)"/>
<path d="M0 0 C2.64 0.33 5.28 0.66 8 1 C8 2.98 8 4.96 8 7 C8.99 7 9.98 7 11 7 C12.44642154 12.60488345 12.70259472 18.40580411 11.1875 24 C10 26 10 26 7 27 C6.98582031 25.84242188 6.97164063 24.68484375 6.95703125 23.4921875 C6.91010743 21.95308628 6.86186018 20.41402501 6.8125 18.875 C6.80669922 18.11445313 6.80089844 17.35390625 6.79492188 16.5703125 C6.56619663 10.67428393 5.07550675 8.22833825 1 4 C0.1875 1.625 0.1875 1.625 0 0 Z " fill="#313131" transform="translate(415,154)"/>
<path d="M0 0 C2.35539693 1.97527523 4.68097428 3.98220855 7 6 C7.99 6.845625 8.98 7.69125 10 8.5625 C12 11 12 11 11.8125 13.8125 C11.544375 14.534375 11.27625 15.25625 11 16 C9.68 15.34 8.36 14.68 7 14 C6.67 14.33 6.34 14.66 6 15 C3.0625 15.1875 3.0625 15.1875 0 15 C-2 13 -2 13 -2.125 10.375 C-2.08375 9.59125 -2.0425 8.8075 -2 8 C-2.66 8 -3.32 8 -4 8 C-2.66666667 5.33333333 -1.33333333 2.66666667 0 0 Z " fill="#D30908" transform="translate(281,152)"/>
<path d="M0 0 C0 1.32 0 2.64 0 4 C1.98 4.99 3.96 5.98 6 7 C6 7.33 6 7.66 6 8 C-1.73059495 9.35709504 -9.14453364 10.31918373 -17 10 C-16.375 7.125 -16.375 7.125 -15 4 C-12.0625 2.75 -12.0625 2.75 -9 2 C-5.5647952 -0.29013653 -4.014669 -0.17842973 0 0 Z " fill="#464646" transform="translate(257,431)"/>
<path d="M0 0 C0.99 0.33 1.98 0.66 3 1 C2.33333333 3.66666667 1.66666667 6.33333333 1 9 C1.66 9 2.32 9 3 9 C3 9.66 3 10.32 3 11 C4.9600281 12.63676257 4.9600281 12.63676257 7 14 C3.66666667 14 0.33333333 14 -3 14 C-2.67 14.99 -2.34 15.98 -2 17 C-4.62187494 15.95125002 -5.79371361 15.35068687 -7.25 12.875 C-7.4975 12.25625 -7.745 11.6375 -8 11 C-9.65 11 -11.3 11 -13 11 C-13 10.67 -13 10.34 -13 10 C-11.02 10 -9.04 10 -7 10 C-7 9.34 -7 8.68 -7 8 C-8.98 8 -10.96 8 -13 8 C-12.67 7.34 -12.34 6.68 -12 6 C-10.9275 5.855625 -9.855 5.71125 -8.75 5.5625 C-5.02055417 5.00308313 -2.97863915 4.25654481 0 2 C0 1.34 0 0.68 0 0 Z " fill="#3B3B3B" transform="translate(167,403)"/>
<path d="M0 0 C5.53846154 0.49230769 5.53846154 0.49230769 7.875 3.0625 C8.431875 4.0215625 8.431875 4.0215625 9 5 C8.01 6.485 8.01 6.485 7 8 C8.32 8.33 9.64 8.66 11 9 C11 8.01 11 7.02 11 6 C15.05723077 7.35241026 16.49085419 9.60926242 19 13 C19 13.99 19 14.98 19 16 C15.70887148 16.59071538 13.62908253 16.39069336 10.7734375 14.6171875 C8.4425997 12.8164399 6.21015327 10.94655701 4 9 C3.43152344 8.525625 2.86304687 8.05125 2.27734375 7.5625 C0.875 6.3125 0.875 6.3125 -1 4 C-0.8125 1.6875 -0.8125 1.6875 0 0 Z " fill="#404040" transform="translate(89,317)"/>
<path d="M0 0 C2.5 0.9375 2.5 0.9375 3.8125 3.375 C5.76031129 6.33278752 6.3844529 6.45031491 9.6875 7.25 C10.945625 7.476875 12.20375 7.70375 13.5 7.9375 C13.5 8.5975 13.5 9.2575 13.5 9.9375 C10.53 10.5975 7.56 11.2575 4.5 11.9375 C4.17 13.5875 3.84 15.2375 3.5 16.9375 C2.18 16.2775 0.86 15.6175 -0.5 14.9375 C-0.5 14.2775 -0.5 13.6175 -0.5 12.9375 C0.16 12.9375 0.82 12.9375 1.5 12.9375 C0.15044165 8.39807646 -1.49581296 7.25571355 -5.5 4.9375 C-5.5 3.9475 -5.5 2.9575 -5.5 1.9375 C-2.5 -0.0625 -2.5 -0.0625 0 0 Z " fill="#3B3B3B" transform="translate(321.5,52.0625)"/>
<path d="M0 0 C2.97 0.495 2.97 0.495 6 1 C6.48430493 8.26457399 6.48430493 8.26457399 4.3125 11.5625 C2 13 2 13 -0.75 12.75 C-1.4925 12.5025 -2.235 12.255 -3 12 C-3.33 12.66 -3.66 13.32 -4 14 C-4.66 12.68 -5.32 11.36 -6 10 C-5.67 9.67 -5.34 9.34 -5 9 C-5.28604898 7.32457024 -5.61781233 5.65614657 -6 4 C-4.7934375 3.566875 -4.7934375 3.566875 -3.5625 3.125 C-0.8673532 2.26737432 -0.8673532 2.26737432 0 0 Z " fill="#090909" transform="translate(109,350)"/>
<path d="M0 0 C0.5775 0.37125 1.155 0.7425 1.75 1.125 C4 2.29166667 4 2.29166667 6.25 1.125 C6.8275 0.75375 7.405 0.3825 8 0 C11.90042545 3.07928325 15.06176152 5.99331117 18 10 C15.69 9.67 13.38 9.34 11 9 C11 10.32 11 11.64 11 13 C8.03 13 5.06 13 2 13 C3 11 3 11 5 8 C3.38731308 5.28775382 1.75098126 2.62647188 0 0 Z " fill="#3A3A3A" transform="translate(157,316)"/>
<path d="M0 0 C1.1055189 0.93590504 2.20935453 1.87379858 3.3125 2.8125 C3.92738281 3.33457031 4.54226562 3.85664063 5.17578125 4.39453125 C9.90994975 8.56100503 9.90994975 8.56100503 10.5 11.4375 C10 14 10 14 7.8125 16.375 C5 18 5 18 2.3125 17.9375 C0 17 0 17 -2 14 C-1.195625 13.38125 -0.39125 12.7625 0.4375 12.125 C3.03874519 10.25835959 3.03874519 10.25835959 4 8 C3.01 7.67 2.02 7.34 1 7 C0.67 4.69 0.34 2.38 0 0 Z " fill="#C90705" transform="translate(225,180)"/>
<path d="M0 0 C0.66 0 1.32 0 2 0 C2 0.66 2 1.32 2 2 C3.175625 1.9071875 3.175625 1.9071875 4.375 1.8125 C5.674375 1.9053125 5.674375 1.9053125 7 2 C9 5 9 5 9 9 C9.66 9.33 10.32 9.66 11 10 C9.95125002 12.62187494 9.35068687 13.79371361 6.875 15.25 C6.25625 15.4975 5.6375 15.745 5 16 C4.62875 14.88625 4.62875 14.88625 4.25 13.75 C3.15703819 10.90133031 3.15703819 10.90133031 0.875 8.9375 C-1 7 -1 7 -1 3 C-0.67 2.01 -0.34 1.02 0 0 Z " fill="#D60404" transform="translate(218,178)"/>
<path d="M0 0 C3 0.125 3 0.125 4 1.125 C3.90997602 3.14908755 3.75358962 5.17044287 3.5625 7.1875 C3.46066406 8.29222656 3.35882813 9.39695313 3.25390625 10.53515625 C3.17011719 11.38980469 3.08632813 12.24445313 3 13.125 C1.02 13.125 -0.96 13.125 -3 13.125 C-3 10.485 -3 7.845 -3 5.125 C-3.99 5.125 -4.98 5.125 -6 5.125 C-3.59259259 0.14969136 -3.59259259 0.14969136 0 0 Z " fill="#5D5D5D" transform="translate(312,235.875)"/>
<path d="M0 0 C0.99 0 1.98 0 3 0 C3.94735511 3.61717404 4.09147657 5.69698387 3 9.3125 C1 12 1 12 -2.625 12.75 C-4.295625 12.87375 -4.295625 12.87375 -6 13 C-6.33 13.66 -6.66 14.32 -7 15 C-7.66 15 -8.32 15 -9 15 C-9.33 13.02 -9.66 11.04 -10 9 C-7.57333205 7.78666603 -5.66500278 8 -3 8 C-2.690625 6.865625 -2.38125 5.73125 -2.0625 4.5625 C-1 1 -1 1 0 0 Z " fill="#383838" transform="translate(448,234)"/>
<path d="M0 0 C1 1 1 1 1.0625 3.5625 C1.041875 4.366875 1.02125 5.17125 1 6 C-1.97 6.66 -4.94 7.32 -8 8 C-10 5 -10 5 -9.75 1.875 C-9.37875 0.451875 -9.37875 0.451875 -9 -1 C-5.78158126 -2.60920937 -3.28446801 -1.0749168 0 0 Z " fill="#3F3F3F" transform="translate(84,281)"/>
<path d="M0 0 C1.17487036 0.75827092 2.33972592 1.53207755 3.5 2.3125 C4.47453125 2.95638672 4.47453125 2.95638672 5.46875 3.61328125 C5.9740625 4.07089844 6.479375 4.52851563 7 5 C7 5.99 7 6.98 7 8 C6.34 8 5.68 8 5 8 C5 10.31 5 12.62 5 15 C2 14 2 14 0.61328125 11.78515625 C0.18402344 10.88667969 -0.24523437 9.98820313 -0.6875 9.0625 C-1.12449219 8.16660156 -1.56148438 7.27070313 -2.01171875 6.34765625 C-3 4 -3 4 -3 2 C-2.34 2 -1.68 2 -1 2 C-0.67 1.34 -0.34 0.68 0 0 Z " fill="#565656" transform="translate(424,182)"/>
<path d="M0 0 C0.78375 0.33 1.5675 0.66 2.375 1 C4.84332497 2.11866511 4.84332497 2.11866511 7 2 C7 2.66 7 3.32 7 4 C8.32 4.33 9.64 4.66 11 5 C10.67 5.99 10.34 6.98 10 8 C7.93359375 8.73046875 7.93359375 8.73046875 5.4375 9.1875 C4.61121094 9.34605469 3.78492188 9.50460938 2.93359375 9.66796875 C2.29550781 9.77753906 1.65742188 9.88710938 1 10 C1 9.34 1 8.68 1 8 C-0.32 8 -1.64 8 -3 8 C-1.125 2.25 -1.125 2.25 0 0 Z " fill="#363636" transform="translate(253,40)"/>
<path d="M0 0 C0.66 0 1.32 0 2 0 C3.44642154 5.60488345 3.70259472 11.40580411 2.1875 17 C1 19 1 19 -2 20 C-2.33 14.72 -2.66 9.44 -3 4 C-2.34 5.32 -1.68 6.64 -1 8 C0.35439668 5.29120665 0.06501451 2.99066732 0 0 Z " fill="#515151" transform="translate(424,161)"/>
<path d="M0 0 C4.73132555 0.36394812 8.18343542 1.1086632 12 4 C12 4.66 12 5.32 12 6 C10.04072937 7.7143618 8.04119788 9.38405168 6 11 C3.7522025 8.94766315 2.9977758 7.99332739 2 5 C1.34 5 0.68 5 0 5 C-0.5625 3.0625 -0.5625 3.0625 -1 1 C-0.67 0.67 -0.34 0.34 0 0 Z " fill="#080808" transform="translate(61,285)"/>
<path d="M0 0 C3.3670108 1.18300379 5.80315307 2.13899005 8 5 C8.29296875 7.48046875 8.29296875 7.48046875 8.1875 10.1875 C8.16042969 11.08855469 8.13335937 11.98960937 8.10546875 12.91796875 C8.07066406 13.60503906 8.03585937 14.29210937 8 15 C5 14 5 14 3.4375 11.1875 C2.963125 10.135625 2.48875 9.08375 2 8 C1.608125 7.29875 1.21625 6.5975 0.8125 5.875 C0 4 0 4 0 0 Z " fill="#4D4D4D" transform="translate(424,197)"/>
<path d="M0 0 C0.66 0 1.32 0 2 0 C2.90238747 2.70716242 3.11851302 4.23776768 3.09765625 7.01171875 C3.09443359 7.76904297 3.09121094 8.52636719 3.08789062 9.30664062 C3.07951172 10.09232422 3.07113281 10.87800781 3.0625 11.6875 C3.05798828 12.48478516 3.05347656 13.28207031 3.04882812 14.10351562 C3.0370585 16.06904257 3.01912348 18.03453085 3 20 C2.34 20 1.68 20 1 20 C-0.94283598 13.07864683 -1.72439115 7.11311348 0 0 Z " fill="#5E5E5E" transform="translate(65,222)"/>
<path d="M0 0 C2.14576637 -0.02685938 4.29162645 -0.04633088 6.4375 -0.0625 C7.63246094 -0.07410156 8.82742188 -0.08570313 10.05859375 -0.09765625 C13 0 13 0 14 1 C14.04063832 2.66617115 14.042721 4.33388095 14 6 C11.03 6 8.06 6 5 6 C5 5.34 5 4.68 5 4 C4.34 3.67 3.68 3.34 3 3 C3.33 2.67 3.66 2.34 4 2 C2.68 1.34 1.36 0.68 0 0 Z " fill="#323232" transform="translate(291,237)"/>
<path d="M0 0 C3.39461728 0.28288477 4.74132059 0.74132059 7.1875 3.1875 C9.04962115 6.07699833 10.07903478 8.69987462 11 12 C8.3125 12.0625 8.3125 12.0625 5 11 C2.60911454 7.83686472 0 4.06100212 0 0 Z " fill="#4A4A4A" transform="translate(369,88)"/>
<path d="M0 0 C0.33 0 0.66 0 1 0 C1.125 7.625 1.125 7.625 0 11 C-0.06740865 12.56118428 -0.08514456 14.1250252 -0.0625 15.6875 C-0.05347656 16.49574219 -0.04445312 17.30398437 -0.03515625 18.13671875 C-0.02355469 18.75160156 -0.01195312 19.36648437 0 20 C3.465 19.505 3.465 19.505 7 19 C7 17.35 7 15.7 7 14 C7.66 15.32 8.32 16.64 9 18 C8.34 18.99 7.68 19.98 7 21 C5.125 21.36328125 5.125 21.36328125 3 21.3125 C2.29875 21.30863281 1.5975 21.30476563 0.875 21.30078125 C-1 21 -1 21 -3 19 C-3.6160021 12.2239769 -1.99156696 6.44888349 0 0 Z " fill="#CF4545" transform="translate(241,190)"/>
<path d="M0 0 C0.66 0 1.32 0 2 0 C0.34927143 8.12486263 -1.43681748 16.11048784 -4 24 C-4.33 24 -4.66 24 -5 24 C-4.67 18.39 -4.34 12.78 -4 7 C-4.66 6.67 -5.32 6.34 -6 6 C-4.6875 4.5 -4.6875 4.5 -3 3 C-2.01 3 -1.02 3 0 3 C0 2.01 0 1.02 0 0 Z " fill="#D02525" transform="translate(258,170)"/>
<path d="M0 0 C2.31 0.33 4.62 0.66 7 1 C5.69791667 2.46484375 4.39583333 3.9296875 3.09375 5.39453125 C1.71848759 7.089448 1.71848759 7.089448 2 10 C-0.33294775 10.04241723 -2.66702567 10.04092937 -5 10 C-6 9 -6 9 -6.09765625 7.15234375 C-6.06510417 5.1015625 -6.03255208 3.05078125 -6 1 C-5.67 1 -5.34 1 -5 1 C-5 2.98 -5 4.96 -5 7 C-4.21625 6.34 -3.4325 5.68 -2.625 5 C0 3 0 3 2 3 C2 2.34 2 1.68 2 1 C1.34 0.67 0.68 0.34 0 0 Z " fill="#333333" transform="translate(146,325)"/>
<path d="M0 0 C2.625 0.375 2.625 0.375 5 1 C5.04241723 3.33294775 5.04092937 5.66702567 5 8 C4 9 4 9 1.4375 9.0625 C0.633125 9.041875 -0.17125 9.02125 -1 9 C-1.625 5.625 -1.625 5.625 -2 2 C-1.34 1.34 -0.68 0.68 0 0 Z " fill="#303030" transform="translate(318,326)"/>
<path d="M0 0 C3.3 0.33 6.6 0.66 10 1 C9.67 1.99 9.34 2.98 9 4 C8.34 4 7.68 4 7 4 C7 4.66 7 5.32 7 6 C4.21176345 7.0326802 3.1322726 7.04509293 0.25 6.0625 C-0.4925 5.711875 -1.235 5.36125 -2 5 C-1.34 3.35 -0.68 1.7 0 0 Z " fill="#202020" transform="translate(309,50)"/>
<path d="M0 0 C1.90389849 2.85584773 2.69462177 4.9311762 3.625 8.1875 C3.88539063 9.08855469 4.14578125 9.98960937 4.4140625 10.91796875 C4.60742188 11.60503906 4.80078125 12.29210937 5 13 C4.01 13 3.02 13 2 13 C-0.51682823 10.28182552 -1.65524233 7.40671944 -3 4 C-3.66 3.34 -4.32 2.68 -5 2 C-3.68 2 -2.36 2 -1 2 C-0.67 1.34 -0.34 0.68 0 0 Z " fill="#343434" transform="translate(409,136)"/>
<path d="M0 0 C0 3 0 3 -1.49609375 4.61328125 C-2.45708984 5.45439453 -2.45708984 5.45439453 -3.4375 6.3125 C-6.12159423 8.85589574 -6.93296004 9.75418681 -7.9375 13.4375 C-7.958125 14.283125 -7.97875 15.12875 -8 16 C-7.34 16 -6.68 16 -6 16 C-6 16.66 -6 17.32 -6 18 C-5.34 18 -4.68 18 -4 18 C-3.67 19.65 -3.34 21.3 -3 23 C-6.74470218 20.37074102 -8.61044934 18.98315167 -10.3125 14.6875 C-9.85034987 9.23412844 -6.81555452 6.68730059 -3 3 C-2.42765625 2.42765625 -1.8553125 1.8553125 -1.265625 1.265625 C-0.84796875 0.84796875 -0.4303125 0.4303125 0 0 Z " fill="#DF6E6F" transform="translate(214,159)"/>
<path d="M0 0 C2.375 0.25 2.375 0.25 5 1 C6.0625 2.8125 6.0625 2.8125 7 5 C8.0828125 5.99 8.0828125 5.99 9.1875 7 C10.0846875 7.99 10.0846875 7.99 11 9 C10.61328125 11.125 10.61328125 11.125 10 13 C2.03392059 5.23034446 2.03392059 5.23034446 0 2 C0 1.34 0 0.68 0 0 Z " fill="#2C2C2C" transform="translate(108,337)"/>
<path d="M0 0 C1.07174763 3.65188082 0.76411467 6.26432828 0 10 C0.66 10 1.32 10 2 10 C1.67 10.99 1.34 11.98 1 13 C0.34 13 -0.32 13 -1 13 C-1 13.66 -1 14.32 -1 15 C-1.66 15 -2.32 15 -3 15 C-2.34 16.98 -1.68 18.96 -1 21 C-2.32 21.33 -3.64 21.66 -5 22 C-4.38955672 14.36945905 -2.20378179 7.29810526 0 0 Z " fill="#D34344" transform="translate(247,168)"/>
<path d="M0 0 C0.33 0.66 0.66 1.32 1 2 C1.66 2.33 2.32 2.66 3 3 C1.68 4.65 0.36 6.3 -1 8 C1.97 11.465 1.97 11.465 5 15 C2.6875 15.3125 2.6875 15.3125 0 15 C-3.32472595 11.21669117 -3.28730852 7.88424492 -3 3 C-2.01 2.67 -1.02 2.34 0 2 C0 1.34 0 0.68 0 0 Z " fill="#CE1F22" transform="translate(220,165)"/>
<path d="M0 0 C5.53846154 0.49230769 5.53846154 0.49230769 7.875 3.0625 C8.431875 4.0215625 8.431875 4.0215625 9 5 C8.01 5 7.02 5 6 5 C5.67 5.99 5.34 6.98 5 8 C3.125 7.6875 3.125 7.6875 1 7 C-1 4 -1 4 -0.625 1.8125 C-0.41875 1.214375 -0.2125 0.61625 0 0 Z " fill="#1C1C1C" transform="translate(89,317)"/>
<path d="M0 0 C2.375 0.875 2.375 0.875 4.375 2.875 C4.6875 6.375 4.6875 6.375 4.375 9.875 C3.385 10.535 2.395 11.195 1.375 11.875 C1.705 9.895 2.035 7.915 2.375 5.875 C1.715 5.875 1.055 5.875 0.375 5.875 C0.375 4.555 0.375 3.235 0.375 1.875 C-1.935 2.535 -4.245 3.195 -6.625 3.875 C-3.325 -0.15833333 -3.325 -0.15833333 0 0 Z " fill="#CF3F3F" transform="translate(229.625,147.125)"/>
<path d="M0 0 C3.03336186 -0.22893297 5.97465051 -0.36475845 9 0 C11.0625 2 11.0625 2 12 4 C11.34 4 10.68 4 10 4 C9.67 4.66 9.34 5.32 9 6 C7.68 6 6.36 6 5 6 C4.67 5.34 4.34 4.68 4 4 C1.98330173 2.86649466 1.98330173 2.86649466 0 2 C0 1.34 0 0.68 0 0 Z " fill="#343434" transform="translate(376,99)"/>
<path d="M0 0 C0.33 0.66 0.66 1.32 1 2 C3.97 2 6.94 2 10 2 C9.01 2.66 8.02 3.32 7 4 C6.67 4.99 6.34 5.98 6 7 C3.03 6.67 0.06 6.34 -3 6 C-3 5.01 -3 4.02 -3 3 C-2.34 3 -1.68 3 -1 3 C-0.67 2.01 -0.34 1.02 0 0 Z " fill="#535353" transform="translate(151,401)"/>
<path d="M0 0 C3.94727588 -0.17942163 6.5980513 -0.09350689 10 2 C10 2.99 10 3.98 10 5 C7.36 5 4.72 5 2 5 C1.34 3.35 0.68 1.7 0 0 Z " fill="#464646" transform="translate(193,408)"/>
<path d="M0 0 C3 2 3 2 3.5 4.375 C3 7 3 7 0.8125 9.375 C-2 11 -2 11 -4.6875 10.9375 C-7 10 -7 10 -9 7 C-2.25 6.875 -2.25 6.875 0 8 C0.79953138 4.71303767 1.09658936 3.28976808 0 0 Z " fill="#D56061" transform="translate(232,187)"/>
<path d="M0 0 C0 1.32 0 2.64 0 4 C-1.65 4.33 -3.3 4.66 -5 5 C-5.268125 4.360625 -5.53625 3.72125 -5.8125 3.0625 C-6.88667752 0.66868314 -6.88667752 0.66868314 -10 0 C-5.91847062 -2.09907226 -4.08152938 -2.09907226 0 0 Z " fill="#2C2C2C" transform="translate(193,399)"/>
<path d="M0 0 C2.00720923 0.28674418 4.0085944 0.61866701 6 1 C5.34 1.66 4.68 2.32 4 3 C3.01 2.67 2.02 2.34 1 2 C0.01 3.485 0.01 3.485 -1 5 C-1.99 5 -2.98 5 -4 5 C-4 5.99 -4 6.98 -4 8 C-4.66 8 -5.32 8 -6 8 C-7.0625 5.625 -7.0625 5.625 -8 3 C-7.67 2.34 -7.34 1.68 -7 1 C-5.5459375 1.0309375 -5.5459375 1.0309375 -4.0625 1.0625 C-1.12534105 1.35618499 -1.12534105 1.35618499 0 0 Z " fill="#5F5F5F" transform="translate(187,396)"/>
<path d="M0 0 C0.99 0.33 1.98 0.66 3 1 C2.67 4.3 2.34 7.6 2 11 C0.68 11 -0.64 11 -2 11 C-2.18076403 7.02319127 -2.04080627 4.44386058 0 1 C0 0.67 0 0.34 0 0 Z " fill="#010101" transform="translate(312,237)"/>
<path d="M0 0 C0.66 0 1.32 0 2 0 C2.33 3.63 2.66 7.26 3 11 C0 10 0 10 -1.25 7.6875 C-2.03209422 4.88499572 -2.04774151 3.66697838 -1 1 C-0.67 0.67 -0.34 0.34 0 0 Z " fill="#5D5D5D" transform="translate(429,225)"/>
<path d="M0 0 C-1.875 5.875 -1.875 5.875 -3 7 C-4.99958364 7.04080783 -7.00045254 7.04254356 -9 7 C-7.16766277 2.5718517 -4.96404317 0 0 0 Z " fill="#424242" transform="translate(355,378)"/>
<path d="M0 0 C0.99 0.33 1.98 0.66 3 1 C2.67 1.66 2.34 2.32 2 3 C2.66 3 3.32 3 4 3 C4 2.01 4 1.02 4 0 C4.99 0.33 5.98 0.66 7 1 C6.79375 1.61875 6.5875 2.2375 6.375 2.875 C6.25125 3.57625 6.1275 4.2775 6 5 C6.66 5.66 7.32 6.32 8 7 C3.545 6.01 3.545 6.01 -1 5 C-0.67 3.35 -0.34 1.7 0 0 Z " fill="#282828" transform="translate(179,401)"/>
<path d="M0 0 C0.8971875 0.309375 0.8971875 0.309375 1.8125 0.625 C1.1525 2.275 0.4925 3.925 -0.1875 5.625 C-2.4975 5.955 -4.8075 6.285 -7.1875 6.625 C-4.6484375 -0.796875 -4.6484375 -0.796875 0 0 Z " fill="#6F6F6F" transform="translate(365.1875,373.375)"/>
<path d="M0 0 C0 0.66 0 1.32 0 2 C-3.96 2.66 -7.92 3.32 -12 4 C-12 3.01 -12 2.02 -12 1 C-7.67265609 -1.22923777 -4.71599818 -0.92470553 0 0 Z " fill="#3C3C3C" transform="translate(313,430)"/>
<path d="M0 0 C-1.2065625 0.86625 -1.2065625 0.86625 -2.4375 1.75 C-4.97866739 3.98126893 -5.65120368 4.74456771 -6 8 C-7.32 6.68 -8.64 5.36 -10 4 C-9.34 4 -8.68 4 -8 4 C-8 2.68 -8 1.36 -8 0 C-4.94736336 -0.98120464 -3.05263664 -0.98120464 0 0 Z " fill="#090909" transform="translate(332,397)"/>
<path d="M0 0 C4.455 0.99 4.455 0.99 9 2 C9 2.99 9 3.98 9 5 C5.7 4.67 2.4 4.34 -1 4 C-0.67 2.68 -0.34 1.36 0 0 Z " fill="#3E3E3E" transform="translate(171,394)"/>
<path d="M0 0 C0.99 0.66 1.98 1.32 3 2 C3.1875 4.625 3.1875 4.625 3 7 C0.69 7 -1.62 7 -4 7 C-3.67 5.68 -3.34 4.36 -3 3 C-2.01 3.33 -1.02 3.66 0 4 C0 3.34 0 2.68 0 2 C-0.66 1.67 -1.32 1.34 -2 1 C-1.34 0.67 -0.68 0.34 0 0 Z " fill="#191919" transform="translate(82,280)"/>
<path d="M0 0 C2.64 0 5.28 0 8 0 C8.33 1.65 8.66 3.3 9 5 C6.69 5 4.38 5 2 5 C2 3.68 2 2.36 2 1 C1.34 0.67 0.68 0.34 0 0 Z " fill="#393939" transform="translate(129,370)"/>
<path d="M0 0 C3.3 0.33 6.6 0.66 10 1 C10.33 2.32 10.66 3.64 11 5 C10.01 5 9.02 5 8 5 C7.34 5.66 6.68 6.32 6 7 C5.34 5.02 4.68 3.04 4 1 C3.01 1.33 2.02 1.66 1 2 C0.67 1.34 0.34 0.68 0 0 Z " fill="#070707" transform="translate(153,236)"/>
<path d="M0 0 C1.15518918 0.90484792 2.29885406 1.8244206 3.4375 2.75 C4.07558594 3.26046875 4.71367187 3.7709375 5.37109375 4.296875 C7.18810554 6.19667629 7.60423197 7.43586908 8 10 C7.01 10 6.02 10 5 10 C5 9.34 5 8.68 5 8 C3.68 7.67 2.36 7.34 1 7 C0.67 4.69 0.34 2.38 0 0 Z " fill="#CC1D20" transform="translate(225,180)"/>
<path d="M0 0 C1.65 0 3.3 0 5 0 C5 3 5 3 3.6875 4.38671875 C2.125 5.59114583 0.5625 6.79557292 -1 8 C-1.125 2.25 -1.125 2.25 0 0 Z " fill="#D93D3C" transform="translate(288,181)"/>
<path d="M0 0 C2.22889496 -0.05428973 4.45817471 -0.09292338 6.6875 -0.125 C8.54955078 -0.15980469 8.54955078 -0.15980469 10.44921875 -0.1953125 C13.81237857 -0.01032021 15.9985587 0.54232105 19 2 C15.77208445 4.1519437 14.71599191 4.20086443 11 4 C11 3.34 11 2.68 11 2 C7.37 1.67 3.74 1.34 0 1 C0 0.67 0 0.34 0 0 Z " fill="#BFBFBF" transform="translate(190,431)"/>
<path d="M0 0 C0.99 0 1.98 0 3 0 C2.45773019 3.79588866 0.79872437 5.47211993 -2 8 C-2.99 7.67 -3.98 7.34 -5 7 C-4.24172908 5.82512964 -3.46792245 4.66027408 -2.6875 3.5 C-2.25824219 2.8503125 -1.82898438 2.200625 -1.38671875 1.53125 C-0.70029297 0.77328125 -0.70029297 0.77328125 0 0 Z " fill="#727272" transform="translate(375,362)"/>
<path d="M0 0 C3.3 0.33 6.6 0.66 10 1 C9.34 2.32 8.68 3.64 8 5 C5.36 4.67 2.72 4.34 0 4 C0 2.68 0 1.36 0 0 Z " fill="#2E2E2E" transform="translate(240,47)"/>
<path d="M0 0 C1.5625 1.75 1.5625 1.75 3 4 C2.6875 6.25 2.6875 6.25 2 8 C1.34 8 0.68 8 0 8 C0 8.66 0 9.32 0 10 C-2.7839183 8.60804085 -2.97898997 6.84424221 -4 4 C-2.68 4 -1.36 4 0 4 C0 2.68 0 1.36 0 0 Z " fill="#393939" transform="translate(384,360)"/>
<path d="M0 0 C1.9375 0.375 1.9375 0.375 4 1 C4.33 1.66 4.66 2.32 5 3 C4.01 4.485 4.01 4.485 3 6 C2.01 6 1.02 6 0 6 C-0.99 6.66 -1.98 7.32 -3 8 C-3.33 7.01 -3.66 6.02 -4 5 C-3.34 4.54625 -2.68 4.0925 -2 3.625 C-1.34 3.08875 -0.68 2.5525 0 2 C0 1.34 0 0.68 0 0 Z " fill="#707070" transform="translate(97,336)"/>
<path d="M0 0 C0 0.66 0 1.32 0 2 C1.32 2.33 2.64 2.66 4 3 C3.67 3.66 3.34 4.32 3 5 C0.69 5 -1.62 5 -4 5 C-4.33 3.68 -4.66 2.36 -5 1 C-2 0 -2 0 0 0 Z " fill="#060606" transform="translate(260,42)"/>
<path d="M0 0 C0.66 0.33 1.32 0.66 2 1 C1.67 1.66 1.34 2.32 1 3 C1.99 3.33 2.98 3.66 4 4 C3.34 4.66 2.68 5.32 2 6 C2 5.34 2 4.68 2 4 C1.34 4 0.68 4 0 4 C0 4.99 0 5.98 0 7 C-0.66 7 -1.32 7 -2 7 C-2.6875 5.1875 -2.6875 5.1875 -3 3 C-1.5625 1.25 -1.5625 1.25 0 0 Z M1 6 C1.66 6.66 2.32 7.32 3 8 C2.01 7.67 1.02 7.34 0 7 C0.33 6.67 0.66 6.34 1 6 Z " fill="#050505" transform="translate(228,413)"/>
<path d="M0 0 C1.32 0.66 2.64 1.32 4 2 C2.06745228 4.0245738 0.36841312 5.42105792 -2 7 C-2.99 7 -3.98 7 -5 7 C-3.70700306 4.11562221 -2.34058637 2.12780579 0 0 Z " fill="#4F4F4F" transform="translate(144,74)"/>
<path d="M0 0 C2.475 0.495 2.475 0.495 5 1 C5.33 2.32 5.66 3.64 6 5 C4.02 5 2.04 5 0 5 C0 3.35 0 1.7 0 0 Z " fill="#1B1B1B" transform="translate(102,328)"/>
<path d="M0 0 C0.66 0 1.32 0 2 0 C1.01 4.62 0.02 9.24 -1 14 C-1.33 14 -1.66 14 -2 14 C-2.3690205 4.58997722 -2.3690205 4.58997722 0 0 Z " fill="#D25859" transform="translate(258,170)"/>
<path d="M0 0 C0.66 0.33 1.32 0.66 2 1 C-0.3125 3.5 -0.3125 3.5 -3 6 C-3.99 6 -4.98 6 -6 6 C-6 5.01 -6 4.02 -6 3 C-4.03533587 1.93224776 -2.03144641 0.93446535 0 0 Z " fill="#6E6E6E" transform="translate(337,391)"/>
<path d="M0 0 C0.33 0.66 0.66 1.32 1 2 C0.67 2.66 0.34 3.32 0 4 C0.99 4.33 1.98 4.66 3 5 C1.68 5.99 0.36 6.98 -1 8 C-2.0625 6.1875 -2.0625 6.1875 -3 4 C-2.67 3.01 -2.34 2.02 -2 1 C-1.34 0.67 -0.68 0.34 0 0 Z " fill="#212121" transform="translate(117,351)"/>
<path d="M0 0 C0.33 1.32 0.66 2.64 1 4 C-1.97 6.475 -1.97 6.475 -5 9 C-5.66 8.34 -6.32 7.68 -7 7 C-4.69 4.69 -2.38 2.38 0 0 Z " fill="#D64D49" transform="translate(222,151)"/>
<path d="M0 0 C0 0.33 0 0.66 0 1 C-1.65 1 -3.3 1 -5 1 C-5 1.66 -5 2.32 -5 3 C-6.98 3.33 -8.96 3.66 -11 4 C-10.67 3.01 -10.34 2.02 -10 1 C-6.34742296 -0.62336757 -3.80637601 -1.46399077 0 0 Z " fill="#747474" transform="translate(264,51)"/>
<path d="M0 0 C5.53846154 0.61538462 5.53846154 0.61538462 7.875 2.5625 C8.431875 3.2740625 8.431875 3.2740625 9 4 C6.75 4.6875 6.75 4.6875 4 5 C1.6875 3.6875 1.6875 3.6875 0 2 C0 1.34 0 0.68 0 0 Z " fill="#555555" transform="translate(335,71)"/>
<path d="M0 0 C1.32 0 2.64 0 4 0 C3.42655063 2.86724686 3.1385485 3.8614515 1 6 C0.01 5.67 -0.98 5.34 -2 5 C-1.34 3.35 -0.68 1.7 0 0 Z " fill="#6D6D6D" transform="translate(303,408)"/>
<path d="M0 0 C2.97 0.33 5.94 0.66 9 1 C7.02 1.99 7.02 1.99 5 3 C3.70768358 6.04199472 3.70768358 6.04199472 3 9 C2.67 9 2.34 9 2 9 C1.34 6.03 0.68 3.06 0 0 Z " fill="#3A3A3A" transform="translate(216,291)"/>
<path d="M0 0 C0.99 0.33 1.98 0.66 3 1 C3 1.99 3 2.98 3 4 C3.66 4.33 4.32 4.66 5 5 C4.34 5 3.68 5 3 5 C2.67 5.66 2.34 6.32 2 7 C1.34 7 0.68 7 0 7 C-0.38133299 5.0085944 -0.71325582 3.00720923 -1 1 C-0.67 0.67 -0.34 0.34 0 0 Z " fill="#262626" transform="translate(439,242)"/>
<path d="M0 0 C2.95183101 2.95183101 3.08663988 5.95511947 4 10 C3.01 10 2.02 10 1 10 C-1 7 -1 7 -0.625 5 C-0.41875 4.34 -0.2125 3.68 0 3 C0 2.01 0 1.02 0 0 Z " fill="#747474" transform="translate(410,139)"/>
<path d="M0 0 C1.32 0 2.64 0 4 0 C4.33 1.32 4.66 2.64 5 4 C5.66 4 6.32 4 7 4 C6.34 5.32 5.68 6.64 5 8 C4.01 8 3.02 8 2 8 C2.33 5.69 2.66 3.38 3 1 C2.01 0.67 1.02 0.34 0 0 Z " fill="#585858" transform="translate(173,261)"/>
<path d="M0 0 C0.33 0.99 0.66 1.98 1 3 C1.33 3.66 1.66 4.32 2 5 C0.02 5 -1.96 5 -4 5 C-4 4.34 -4 3.68 -4 3 C-4.66 2.34 -5.32 1.68 -6 1 C-3.92446352 0.4465236 -2.15634036 0 0 0 Z " fill="#6E6E6E" transform="translate(233,411)"/>
<path d="M0 0 C0.88935377 3.303314 1.46274105 6.62294375 2 10 C0.68 10.33 -0.64 10.66 -2 11 C-1.125 3.375 -1.125 3.375 0 0 Z " fill="#DC5D5C" transform="translate(244,179)"/>
<path d="M0 0 C1.32 0 2.64 0 4 0 C3.67 1.98 3.34 3.96 3 6 C2.01 5.67 1.02 5.34 0 5 C0 3.35 0 1.7 0 0 Z " fill="#414141" transform="translate(88,135)"/>
<path d="M0 0 C2.6875 0.875 2.6875 0.875 5 2 C5 2.66 5 3.32 5 4 C2.6875 4.6875 2.6875 4.6875 0 5 C-1.8125 3.5625 -1.8125 3.5625 -3 2 C-2.01 1.34 -1.02 0.68 0 0 Z " fill="#838383" transform="translate(361,80)"/>
<path d="M0 0 C2.64 0 5.28 0 8 0 C8 0.33 8 0.66 8 1 C6.824375 1.12375 6.824375 1.12375 5.625 1.25 C2.85250896 1.72806339 2.85250896 1.72806339 1.6875 4.0625 C1.3471875 5.0215625 1.3471875 5.0215625 1 6 C0.34 6 -0.32 6 -1 6 C-0.67 4.02 -0.34 2.04 0 0 Z " fill="#7C7C7C" transform="translate(237,38)"/>
<path d="M0 0 C2 1 2 1 4 4 C4 4.99 4 5.98 4 7 C2.0625 6.25 2.0625 6.25 0 5 C-0.8125 2.9375 -0.8125 2.9375 -1 1 C-0.67 0.67 -0.34 0.34 0 0 Z " fill="#828282" transform="translate(71,291)"/>
<path d="M0 0 C0.66 0 1.32 0 2 0 C2 1.32 2 2.64 2 4 C2.66 4 3.32 4 4 4 C3.67 4.99 3.34 5.98 3 7 C3 6.34 3 5.68 3 5 C1.35 5 -0.3 5 -2 5 C-1.34 3.35 -0.68 1.7 0 0 Z " fill="#818181" transform="translate(434,262)"/>
<path d="M0 0 C0.66 0 1.32 0 2 0 C1.34 3.3 0.68 6.6 0 10 C-0.33 10 -0.66 10 -1 10 C-1.02689216 8.52093108 -1.04634621 7.04172517 -1.0625 5.5625 C-1.07410156 4.73878906 -1.08570313 3.91507813 -1.09765625 3.06640625 C-1 1 -1 1 0 0 Z " fill="#D6393C" transform="translate(251,195)"/>
<path d="M0 0 C0.66 0.33 1.32 0.66 2 1 C1.21625 1.763125 0.4325 2.52625 -0.375 3.3125 C-3.07257717 5.90891805 -3.07257717 5.90891805 -5 9 C-5 7.02 -5 5.04 -5 3 C-3.35 2.67 -1.7 2.34 0 2 C0 1.34 0 0.68 0 0 Z " fill="#D00403" transform="translate(278,184)"/>
<path d="M0 0 C3.465 1.98 3.465 1.98 7 4 C6.67 4.66 6.34 5.32 6 6 C3.5625 5.25 3.5625 5.25 1 4 C0.1875 1.875 0.1875 1.875 0 0 Z " fill="#3C3C3C" transform="translate(354,80)"/>
<path d="M0 0 C2.46800047 1.15173355 4.04783565 2.04783565 6 4 C2.98968256 4.93423645 2.13349732 5.04449911 -1 4 C-0.67 2.68 -0.34 1.36 0 0 Z " fill="#454545" transform="translate(443,242)"/>
<path d="M0 0 C0.99 0 1.98 0 3 0 C3.33 1.98 3.66 3.96 4 6 C3.01 6 2.02 6 1 6 C0.67 4.02 0.34 2.04 0 0 Z " fill="#1E1E1E" transform="translate(446,239)"/>
<path d="M0 0 C0.99 0 1.98 0 3 0 C2.34 2.64 1.68 5.28 1 8 C0.34 7.67 -0.32 7.34 -1 7 C-0.67 4.69 -0.34 2.38 0 0 Z " fill="#CE3A3A" transform="translate(255,138)"/>
<path d="M0 0 C0.99 0.33 1.98 0.66 3 1 C2.6875 2.9375 2.6875 2.9375 2 5 C1.01 5.33 0.02 5.66 -1 6 C-1.66 5.34 -2.32 4.68 -3 4 C-2.01 3.34 -1.02 2.68 0 2 C0 1.34 0 0.68 0 0 Z " fill="#606060" transform="translate(167,403)"/>
<path d="M0 0 C0.66 0.33 1.32 0.66 2 1 C1.34 2.32 0.68 3.64 0 5 C-1.32 4.67 -2.64 4.34 -4 4 C-4 3.34 -4 2.68 -4 2 C-4.66 1.67 -5.32 1.34 -6 1 C-4.7934375 1.0309375 -4.7934375 1.0309375 -3.5625 1.0625 C-1.06645115 1.29633621 -1.06645115 1.29633621 0 0 Z " fill="#323232" transform="translate(175,403)"/>
<path d="M0 0 C-1.33333333 1.33333333 -2.66666667 2.66666667 -4 4 C-4 3.01 -4 2.02 -4 1 C-4.99 1 -5.98 1 -7 1 C-7.33 1.99 -7.66 2.98 -8 4 C-8 2.68 -8 1.36 -8 0 C-4.94736336 -0.98120464 -3.05263664 -0.98120464 0 0 Z " fill="#4E4E4E" transform="translate(295,292)"/>
<path d="M0 0 C2.475 0.495 2.475 0.495 5 1 C5.33 2.65 5.66 4.3 6 6 C3.97945196 4.35830472 1.97956942 2.69088222 0 1 C0 0.67 0 0.34 0 0 Z " fill="#DE5A5D" transform="translate(217,188)"/>
<path d="M0 0 C0.66 0 1.32 0 2 0 C1.64950425 3.24208567 1.43778819 4.61527704 -1.0625 6.8125 C-1.701875 7.204375 -2.34125 7.59625 -3 8 C-3.66 7.67 -4.32 7.34 -5 7 C-4.175 6.030625 -3.35 5.06125 -2.5 4.0625 C0.10539608 1.52977999 0.10539608 1.52977999 0 0 Z " fill="#CB3435" transform="translate(286,171)"/>
<path d="M0 0 C0.66 0.33 1.32 0.66 2 1 C1.67 2.32 1.34 3.64 1 5 C-0.32 4.34 -1.64 3.68 -3 3 C-3 2.34 -3 1.68 -3 1 C-2.01 0.67 -1.02 0.34 0 0 Z " fill="#878787" transform="translate(324,64)"/>
<path d="M0 0 C-1.25 1.5 -1.25 1.5 -3 3 C-4.32 3 -5.64 3 -7 3 C-7 2.34 -7 1.68 -7 1 C-3.375 -1.125 -3.375 -1.125 0 0 Z " fill="#858585" transform="translate(152,64)"/>
<path d="" fill="#AAAAAA" transform="translate(0,0)"/>
<path d="" fill="#000000" transform="translate(0,0)"/>
<path d="" fill="#000000" transform="translate(0,0)"/>
</svg>
